<?xml version="1.0" encoding="UTF-8"?>
<svg width="100px" height="27px" viewBox="0 0 100 27" version="1.1" xmlns="http://www.w3.org/2000/svg" xmlns:xlink="http://www.w3.org/1999/xlink">
    <!-- Generator: Sketch 50.2 (55047) - http://www.bohemiancoding.com/sketch -->
    <title>logo</title>
    <desc>Created with Sketch.</desc>
    <defs></defs>
    <g id="home-page" stroke="none" stroke-width="1" fill="none" fill-rule="evenodd">
        <g id="sky-blue-bg" transform="translate(-114.000000, -21.000000)" fill="#FFFFFF">
            <g id="logo" transform="translate(114.000000, 21.000000)">
                <path d="M10.6949646,19.8004807 L9.03037869,19.8004807 L9.03037869,17.9581232 C8.21889305,19.3044614 6.65834374,20.1784002 5.11860175,20.1784002 C2.16396171,20.1784002 0,17.2731441 0,13.8954886 C0,10.541453 2.18476904,7.63619691 5.11860175,7.63619691 C6.65834374,7.63619691 8.21889305,8.48651578 9.03037869,9.83285399 L9.03037869,7.99049644 L10.6949646,7.99049644 L10.6949646,19.8004807 Z M9.03037869,16.0921457 L9.03037869,11.6988315 C8.44777362,10.612313 7.13691219,9.47855446 5.43071161,9.47855446 C3.32917187,9.47855446 1.68539326,11.5098718 1.68539326,13.8954886 C1.68539326,16.3047254 3.30836454,18.3360427 5.43071161,18.3360427 C7.13691219,18.3360427 8.44777362,17.2022842 9.03037869,16.0921457 Z M14.9188514,10.9193725 C14.9188514,13.3758493 21.181856,12.4074306 21.181856,16.6590249 C21.181856,18.855682 19.2467749,20.2020202 17.1868498,20.2020202 C15.3558052,20.2020202 13.8368706,19.4934211 13.0878069,19.1155016 L13.3999168,17.2967641 C14.2114024,17.8164034 15.7719517,18.4541425 17.1868498,18.4541425 C18.3728672,18.4541425 19.5172701,17.7927834 19.5172701,16.6354049 C19.5172701,14.0608284 13.2542655,14.9583872 13.2542655,10.9666125 C13.2542655,8.93529518 15.0228881,7.565337 17.1868498,7.565337 C18.9762797,7.565337 20.349563,8.22669612 20.9321681,8.60461562 L20.6200583,10.3761133 C19.8918019,9.88009392 18.5393258,9.28959471 17.1868498,9.28959471 C15.917603,9.28959471 14.9188514,9.90371389 14.9188514,10.9193725 Z M33.3333333,19.8004807 L31.2317936,19.8004807 L27.7153558,14.4151279 L25.3017062,17.5329638 L25.3017062,19.8004807 L23.6163129,19.8004807 L23.6163129,3.03030303 L25.3017062,3.03030303 L25.3017062,13.588429 L25.2184769,15.052867 L26.0299625,13.8718686 L30.5035372,7.99049644 L32.667499,7.99049644 L28.8389513,12.9270699 L33.3333333,19.8004807 Z" id="ask"></path>
                <path d="M73.8489871,16.0840818 L74.1559239,17.6390773 C73.7466749,17.8232216 72.7849396,18.150589 71.7618171,18.150589 C69.7360344,18.150589 68.5287497,16.9843424 68.5287497,14.8769141 L68.5287497,9.2298249 L66.6666667,9.2298249 L66.6666667,7.69528978 L68.5287497,7.69528978 L68.5287497,4.74898236 L70.1657459,4.74898236 L70.1657459,7.69528978 L73.9717618,7.69528978 L73.9717618,9.2298249 L70.1657459,9.2298249 L70.1657459,14.8973746 C70.1657459,15.920398 70.8000818,16.5546725 71.8436669,16.5546725 C72.6621649,16.5546725 73.3374258,16.3500678 73.8489871,16.0840818 Z M83.0366278,7.71575025 L82.7706159,9.31166677 C82.3409044,9.10706209 81.8498056,8.98429928 81.2973194,8.98429928 C79.6398609,8.98429928 78.2279517,10.3346902 77.6550031,11.6646206 L77.6550031,17.9255239 L75.9975445,17.9255239 L75.9975445,7.69528978 L77.5936157,7.69528978 L77.5936157,9.88455988 C78.330264,8.55462945 79.7012482,7.36792229 81.3791692,7.36792229 C82.1362799,7.36792229 82.6887661,7.55206651 83.0366278,7.71575025 Z M85.5535093,5.301415 C84.9191733,5.301415 84.4280745,4.7899033 84.4280745,4.17608925 C84.4280745,3.54181474 84.9191733,3.03030303 85.5535093,3.03030303 C86.1673829,3.03030303 86.6789441,3.54181474 86.6789441,4.17608925 C86.6789441,4.7899033 86.1673829,5.301415 85.5535093,5.301415 Z M84.7145488,7.69528978 L86.3720074,7.69528978 L86.3720074,17.9255239 L84.7145488,17.9255239 L84.7145488,7.69528978 Z M94.966237,7.38838276 C97.8514426,7.38838276 100,9.90502035 100,12.8104068 C100,15.7362538 97.8719051,18.2528914 94.966237,18.2528914 C93.4520156,18.2528914 91.9173317,17.4958541 91.1397585,16.3296074 L91.1397585,22.2222222 L89.4823,22.2222222 L89.4823,7.69528978 L91.1397585,7.69528978 L91.1397585,9.29120631 C91.9173317,8.12495962 93.4520156,7.38838276 94.966237,7.38838276 Z M94.6797626,16.6569749 C96.7464702,16.6569749 98.3425414,14.8973746 98.3425414,12.8104068 C98.3425414,10.7438995 96.7260078,8.98429928 94.6593002,8.98429928 C92.9813792,8.98429928 91.6922447,9.96640176 91.1192961,10.9075833 L91.1192961,14.7132304 C91.6922447,15.6748724 92.9813792,16.6569749 94.6797626,16.6569749 Z" id="trip"></path>
                <path d="M53.1910009,25.9876914 L53.1910009,17.2348252 L62.4515069,18.5900211 C60.7390343,22.3317039 57.3204072,25.1293858 53.1910009,25.9876914 Z M50.8034894,26.2593018 C50.7042773,26.2615142 50.6047938,26.2626263 50.5050505,26.2626263 C43.2528265,26.2626263 37.3737374,20.3835371 37.3737374,13.1313131 C37.3737374,5.87908914 43.2528265,0 50.5050505,0 C50.6047938,0 50.7042774,0.00111207745 50.8034894,0.00332450974 L50.8034894,0.705083448 L40.1622784,11.6639426 L39.7612489,13.728191 L41.3790276,15.5062437 L50.8034894,16.8854332 L50.8034894,26.2593018 Z M53.1910009,1.67351941 L54.2809906,0.5509927 C59.6927335,2.17300376 63.6363636,7.19161636 63.6363636,13.1313131 C63.6363636,14.2186537 63.504204,15.2751267 63.2550717,16.2855452 L53.1910009,14.7815205 L53.1910009,1.67351941 Z M50.8034894,4.13229988 L50.8034894,14.4247189 L42.1487603,13.1313131 L42.0385674,13.1588614 L50.8034894,4.13229988 Z" id="Combined-Shape"></path>
            </g>
        </g>
    </g>
</svg>