<?xml version="1.0" encoding="UTF-8"?>
<svg width="143px" height="32px" viewBox="0 0 143 32" version="1.1" xmlns="http://www.w3.org/2000/svg" xmlns:xlink="http://www.w3.org/1999/xlink">
    <!-- Generator: Sketch 50.2 (55047) - http://www.bohemiancoding.com/sketch -->
    <title>Group 8</title>
    <desc>Created with Sketch.</desc>
    <defs></defs>
    <g id="homepage-copy" stroke="none" stroke-width="1" fill="none" fill-rule="evenodd">
        <g id="Homepage---1440-" transform="translate(-132.000000, -116.000000)" fill="#FF3B30">
            <g id="Group-4" transform="translate(132.000000, 69.000000)">
                <g id="Group-5">
                    <g id="Group-3">
                        <g id="logo">
                            <g id="Group-8" transform="translate(0.000000, 47.000000)">
                                <path d="M44,7 L46.9544946,7 L49.5784163,15.9704942 L53.5246293,9.54368619 L57.4708424,15.9498026 L60.0947641,7 L63.0492587,7 L57.9694564,21.8151788 L53.5597226,13.7960553 L49.0798023,21.8151788 L44,7 Z M68.2471361,20.3850156 L68.0892029,20.3850156 C67.786496,20.7540775 67.4212791,21.0704114 66.9935412,21.3340271 C66.5658033,21.5976427 66.0163328,21.7294485 65.3451132,21.7294485 C64.8449889,21.7294485 64.3744842,21.6470698 63.9335851,21.4823101 C63.492686,21.3175503 63.1077276,21.0901853 62.7786984,20.8002081 C62.4496693,20.5102309 62.1930303,20.1609455 62.008774,19.7523413 C61.8245177,19.3437371 61.7323909,18.8955973 61.7323909,18.4079084 C61.7323909,17.9070388 61.8310981,17.4556038 62.0285157,17.05359 C62.2259332,16.6515762 62.5023135,16.3055859 62.857665,16.0156087 C63.2130166,15.7256316 63.6308774,15.5048568 64.11126,15.3532778 C64.5916426,15.2016989 65.1147911,15.1259105 65.6807213,15.1259105 C66.3124573,15.1259105 66.8323157,15.1753377 67.2403118,15.2741935 C67.648308,15.3730494 67.9839128,15.4751989 68.2471361,15.5806452 L68.2471361,15.2840791 C68.2471361,14.7700286 68.0431411,14.3449549 67.6351449,14.008845 C67.2271487,13.6727351 66.7204514,13.5046826 66.1150377,13.5046826 C65.2200783,13.5046826 64.4633225,13.8803292 63.8447477,14.6316337 L61.9692907,13.346514 C62.9958617,12.0547976 64.397505,11.408949 66.1742626,11.408949 C67.6746357,11.408949 68.8196401,11.7615296 69.6093101,12.4667014 C70.3989801,13.1718731 70.7938092,14.2164343 70.7938092,15.6004162 L70.7938092,21.4131113 L68.2471361,21.4131113 L68.2471361,20.3850156 Z M68.2471361,17.4786681 C67.9444293,17.3336795 67.6318562,17.2183494 67.3094076,17.1326743 C66.986959,17.0469992 66.6349031,17.0041623 66.2532292,17.0041623 C65.6346544,17.0041623 65.1575692,17.1392633 64.8219594,17.4094693 C64.4863497,17.6796753 64.3185473,18.012485 64.3185473,18.4079084 C64.3185473,18.8033318 64.4797692,19.1196658 64.8022178,19.3569199 C65.1246664,19.5941739 65.4964638,19.7127992 65.9176211,19.7127992 C66.2598115,19.7127992 66.5756748,19.6501914 66.8652204,19.524974 C67.1547661,19.3997566 67.4015343,19.2349993 67.6055324,19.0306972 C67.8095305,18.8263951 67.9674621,18.5891446 68.0793321,18.3189386 C68.191202,18.0487326 68.2471361,17.7686452 68.2471361,17.4786681 Z M79.4450401,13.9396462 L75.7928344,13.9396462 L75.7928344,21.4131113 L73.206678,21.4131113 L73.206678,13.9396462 L71.4694126,13.9396462 L71.4694126,11.7252862 L73.206678,11.7252862 L73.206678,10.7762747 C73.206678,10.1831396 73.2955145,9.65921143 73.4731903,9.20447451 C73.6508661,8.74973758 73.9042147,8.36750068 74.2332439,8.05775234 C74.5622731,7.748004 74.9505217,7.51075351 75.3980014,7.34599376 C75.8454811,7.181234 76.3390174,7.09885536 76.8786253,7.09885536 C77.1418486,7.09885536 77.3524242,7.11203594 77.5103582,7.1383975 C77.6682922,7.16475906 77.8196433,7.20430081 77.9644162,7.25702393 L77.806483,9.68886576 C77.7143548,9.64932342 77.609067,9.61637197 77.4906165,9.59001041 C77.372166,9.56364884 77.2208149,9.55046826 77.0365585,9.55046826 C76.6548847,9.55046826 76.3521824,9.6756838 76.1284425,9.92611863 C75.9047027,10.1765535 75.7928344,10.5192486 75.7928344,10.9542144 L75.7928344,11.7252862 L79.4450401,11.7252862 L79.4450401,8.75962539 L82.0311965,8.75962539 L82.0311965,11.7252862 L84.4001948,11.7252862 L84.4001948,13.9396462 L82.0311965,13.9396462 L82.0311965,17.6961498 C82.0311965,17.9202231 82.0542282,18.1278173 82.1002923,18.3189386 C82.1463564,18.5100599 82.2351929,18.6715221 82.3668046,18.8033299 C82.551061,19.0142224 82.8142804,19.119667 83.1564707,19.119667 C83.3802106,19.119667 83.5578836,19.096601 83.6894953,19.0504683 C83.821107,19.0043355 83.9461362,18.9417278 84.0645867,18.8626431 L84.7950278,21.1363163 C84.492321,21.2813049 84.166587,21.3900447 83.8178161,21.462539 C83.4690451,21.5350333 83.0840868,21.5712799 82.6629294,21.5712799 C82.1759662,21.5712799 81.738364,21.4954916 81.3501095,21.3439126 C80.9618551,21.1923336 80.6361211,20.9847394 80.3728977,20.7211238 C79.7543229,20.1279887 79.4450401,19.2844314 79.4450401,18.1904266 L79.4450401,13.9396462 Z M88.7280038,9.78772112 L88.7280038,13.069719 L94.393858,13.069719 L93,15.6004162 L88.7280038,15.6004162 L88.7280038,18.8824142 L95.0255909,18.8824142 L94,21.4131113 L86.0628808,21.4131113 L86.0628808,7.25702393 L95.0255909,7.25702393 L94,9.78772112 L88.7280038,9.78772112 Z M98.8401169,12.9906348 L98.9980501,12.9906348 C99.300757,12.5029459 99.7087471,12.1174138 100.222033,11.8340271 C100.735318,11.5506403 101.320981,11.408949 101.97904,11.408949 C102.584453,11.408949 103.117473,11.5078034 103.578113,11.7055151 C104.038754,11.9032268 104.417132,12.1833142 104.713258,12.5457856 C105.009385,12.9082571 105.233121,13.3432163 105.384475,13.8506764 C105.535828,14.3581364 105.611504,14.9216063 105.611504,15.541103 L105.611504,21.4131113 L103.025347,21.4131113 L103.025347,15.8574402 C103.025347,15.1588588 102.870706,14.6415209 102.561418,14.305411 C102.252131,13.9693011 101.801368,13.8012487 101.209115,13.8012487 C100.853764,13.8012487 100.541191,13.877037 100.271387,14.028616 C100.001583,14.180195 99.7712658,14.384494 99.5804289,14.6415193 C99.389592,14.8985445 99.2448213,15.2016979 99.1461125,15.5509886 C99.0474038,15.9002792 98.9980501,16.2726307 98.9980501,16.6680541 L98.9980501,21.4131113 L96.4118937,21.4131113 L96.4118937,11.7252862 L98.8401169,11.7252862 L98.8401169,12.9906348 Z M111.558128,26 C110.873747,26 110.265053,25.9110311 109.732025,25.7330905 C109.198998,25.55515 108.735074,25.3244898 108.340239,25.041103 C107.945404,24.7577162 107.61638,24.4446774 107.353156,24.1019771 C107.089933,23.7592768 106.899099,23.4165817 106.780648,23.0738814 L109.248355,22.0853278 C109.432611,22.5993782 109.735313,22.9980908 110.156471,23.2814776 C110.577628,23.5648644 111.044843,23.7065557 111.558128,23.7065557 C112.374121,23.7065557 113.019008,23.4528295 113.49281,22.9453694 C113.966612,22.4379094 114.20351,21.729453 114.20351,20.8199792 L114.20351,20.1477627 L114.045576,20.1477627 C113.742869,20.5695477 113.34475,20.9023574 112.851206,21.1462019 C112.357663,21.3900463 111.77529,21.5119667 111.10407,21.5119667 C110.524979,21.5119667 109.962347,21.3933415 109.416159,21.1560874 C108.86997,20.9188334 108.386305,20.5794334 107.965147,20.1378772 C107.54399,19.6963211 107.201805,19.1658026 106.938582,18.5463059 C106.675358,17.9268093 106.543748,17.2348287 106.543748,16.4703434 C106.543748,15.7058581 106.675358,15.0105824 106.938582,14.3844953 C107.201805,13.7584082 107.54399,13.2245946 107.965147,12.7830385 C108.386305,12.3414824 108.86997,12.0020824 109.416159,11.7648283 C109.962347,11.5275743 110.524979,11.408949 111.10407,11.408949 C111.77529,11.408949 112.357663,11.5308694 112.851206,11.7747138 C113.34475,12.0185583 113.742869,12.351368 114.045576,12.773153 L114.20351,12.773153 L114.20351,11.7252862 L116.671216,11.7252862 L116.671216,20.7211238 C116.671216,21.5383322 116.546187,22.2731497 116.296125,22.9255983 C116.046062,23.578047 115.697297,24.1316314 115.249817,24.5863684 C114.802337,25.0411053 114.266028,25.3903907 113.640872,25.6342352 C113.015717,25.8780796 112.321476,26 111.558128,26 Z M111.656836,19.1789802 C111.972704,19.1789802 112.285277,19.1196676 112.594565,19.0010406 C112.903852,18.8824136 113.176942,18.7077708 113.413843,18.4771072 C113.650744,18.2464435 113.841579,17.963061 113.986351,17.6269511 C114.131124,17.2908412 114.20351,16.9053091 114.20351,16.4703434 C114.20351,16.0353776 114.131124,15.6465504 113.986351,15.3038502 C113.841579,14.9611499 113.650744,14.6744722 113.413843,14.4438085 C113.176942,14.2131449 112.903852,14.0385022 112.594565,13.9198751 C112.285277,13.8012481 111.972704,13.7419355 111.656836,13.7419355 C111.340968,13.7419355 111.031686,13.8012481 110.728979,13.9198751 C110.426272,14.0385022 110.156472,14.21644 109.919571,14.4536941 C109.68267,14.6909481 109.491836,14.9776258 109.347063,15.3137357 C109.20229,15.6498456 109.129905,16.0353776 109.129905,16.4703434 C109.129905,16.9053091 109.20229,17.2908412 109.347063,17.6269511 C109.491836,17.963061 109.68267,18.2464435 109.919571,18.4771072 C110.156472,18.7077708 110.426272,18.8824136 110.728979,19.0010406 C111.031686,19.1196676 111.340968,19.1789802 111.656836,19.1789802 Z M119.775043,10.3215401 C119.551303,10.3215401 119.337437,10.2787032 119.133439,10.1930281 C118.929441,10.107353 118.751768,9.98872778 118.600414,9.8371488 C118.449061,9.68556983 118.330612,9.51092711 118.245065,9.3132154 C118.159517,9.11550369 118.116744,8.89802408 118.116744,8.66077003 C118.116744,8.42351598 118.159517,8.20603637 118.245065,8.00832466 C118.330612,7.81061296 118.449061,7.63597023 118.600414,7.48439126 C118.751768,7.33281228 118.929441,7.21418704 119.133439,7.12851197 C119.337437,7.04283689 119.551303,7 119.775043,7 C120.235683,7 120.630513,7.16146214 120.959542,7.48439126 C121.288571,7.80732038 121.453083,8.19944272 121.453083,8.66077003 C121.453083,9.12209735 121.288571,9.51421968 120.959542,9.8371488 C120.630513,10.1600779 120.235683,10.3215401 119.775043,10.3215401 Z M118.491835,21.4131113 L118.491835,11.7252862 L121.077992,11.7252862 L121.077992,21.4131113 L118.491835,21.4131113 Z M125.326834,12.9906348 L125.484767,12.9906348 C125.787474,12.5029459 126.195464,12.1174138 126.70875,11.8340271 C127.222035,11.5506403 127.807698,11.408949 128.465757,11.408949 C129.07117,11.408949 129.60419,11.5078034 130.064831,11.7055151 C130.525471,11.9032268 130.903849,12.1833142 131.199976,12.5457856 C131.496102,12.9082571 131.719838,13.3432163 131.871192,13.8506764 C132.022545,14.3581364 132.098221,14.9216063 132.098221,15.541103 L132.098221,21.4131113 L129.512064,21.4131113 L129.512064,15.8574402 C129.512064,15.1588588 129.357423,14.6415209 129.048136,14.305411 C128.738848,13.9693011 128.288085,13.8012487 127.695832,13.8012487 C127.340481,13.8012487 127.027908,13.877037 126.758104,14.028616 C126.4883,14.180195 126.257983,14.384494 126.067146,14.6415193 C125.876309,14.8985445 125.731538,15.2016979 125.63283,15.5509886 C125.534121,15.9002792 125.484767,16.2726307 125.484767,16.6680541 L125.484767,21.4131113 L122.898611,21.4131113 L122.898611,11.7252862 L125.326834,11.7252862 L125.326834,12.9906348 Z M142.842067,19.0801249 C142.394587,19.8709717 141.792473,20.51023 141.035706,20.9979188 C140.278938,21.4856077 139.35438,21.7294485 138.262003,21.7294485 C137.524978,21.7294485 136.843898,21.6009378 136.218742,21.3439126 C135.593587,21.0868874 135.050697,20.7277165 134.590056,20.2663892 C134.129415,19.8050619 133.770779,19.2613628 133.514136,18.6352758 C133.257493,18.0091887 133.129174,17.3205032 133.129174,16.5691988 C133.129174,15.8706174 133.254203,15.2082931 133.504265,14.582206 C133.754327,13.956119 134.103093,13.4091248 134.550573,12.9412071 C134.998053,12.4732894 135.527782,12.1009379 136.139776,11.8241415 C136.75177,11.5473451 137.42627,11.408949 138.163295,11.408949 C138.939804,11.408949 139.630755,11.5374597 140.236169,11.7944849 C140.841582,12.0515101 141.34828,12.4073859 141.756276,12.8621228 C142.164272,13.3168597 142.473555,13.8539685 142.684134,14.4734651 C142.894712,15.0929618 143,15.7651715 143,16.4901145 L143,16.7273673 C142.986839,16.806452 142.980258,16.8789452 142.980258,16.9448491 C142.967097,17.010753 142.960517,17.0832462 142.960517,17.1623309 L135.675847,17.1623309 C135.728492,17.5577543 135.83707,17.8971543 136.001584,18.1805411 C136.166099,18.4639279 136.370094,18.7011784 136.613576,18.8922997 C136.857057,19.083421 137.123567,19.2218171 137.413112,19.3074922 C137.702658,19.3931673 137.99878,19.4360042 138.301487,19.4360042 C138.893739,19.4360042 139.383985,19.3009032 139.77224,19.0306972 C140.160494,18.7604912 140.466487,18.4210912 140.690227,18.012487 L142.842067,19.0801249 Z M140.49281,15.3236212 C140.479649,15.1522711 140.423715,14.9611526 140.325006,14.7502601 C140.226297,14.5393677 140.081527,14.3416589 139.89069,14.157128 C139.699853,13.9725971 139.462955,13.8210204 139.17999,13.7023933 C138.897025,13.5837663 138.55813,13.5244537 138.163295,13.5244537 C137.610526,13.5244537 137.12357,13.6826207 136.702413,13.9989594 C136.281256,14.3152981 135.985134,14.7568477 135.814039,15.3236212 L140.49281,15.3236212 Z" id="WaftEngine-Copy"></path>
                                <path d="M30.6460116,15.9996799 C30.6460116,16.4667093 31.2504164,16.8458707 32,16.8529129 C31.9857009,17.123933 31.9647857,17.3930858 31.918527,17.6566901 C31.167823,17.5377721 30.498752,17.8181818 30.4252822,18.2855314 C30.3518125,18.7528809 30.9005147,19.2261524 31.6709067,19.3474712 C31.6139236,19.6150768 31.5503779,19.8800149 31.4232864,20.1216389 C30.7002736,19.8868438 29.9953481,20.0600192 29.8498492,20.5091229 C29.7043503,20.9582266 30.1718996,21.512644 30.9522156,21.7634443 C30.8528687,22.0211268 30.7472793,22.2752881 30.6354474,22.5259283 C30.6064756,22.5099232 30.577824,22.4939181 30.5483721,22.4779129 C29.8709777,22.1331626 29.1473247,22.193822 28.9334781,22.6147567 C28.7196315,23.0356914 29.0948234,23.65637 29.8580125,24.0412932 C29.717689,24.2816901 29.5716565,24.5180858 29.4199151,24.7504802 C29.3861414,24.7229513 29.3514073,24.6955826 29.3152327,24.6693342 C28.6999435,24.2224712 27.9754901,24.1694942 27.6985779,24.5516965 C27.4216658,24.9338988 27.6948964,25.6056338 28.3100256,26.0521767 C28.3447596,26.0771447 28.3794937,26.1005122 28.4145479,26.1232394 C28.2371961,26.3410158 28.0541353,26.5536705 27.8653655,26.7612036 C27.8301512,26.7207106 27.7936564,26.6797375 27.7542805,26.640685 C27.2166227,26.103233 26.5096164,25.93742 26.1762014,26.2716069 C25.8427863,26.6057939 26.0078132,27.3119398 26.545631,27.8493918 C26.582766,27.8863636 26.6207014,27.9210948 26.6587968,27.9548656 C26.4471911,28.1434059 26.2306234,28.3262911 26.0090937,28.5035211 C25.9767606,28.4497439 25.9425067,28.3962868 25.9044113,28.3434699 C25.4576704,27.7285531 24.785238,27.4540653 24.4034834,27.7322343 C24.0217288,28.0104033 24.0745502,28.7338348 24.5216113,29.3487516 C24.557946,29.3986876 24.5962015,29.4455826 24.6352573,29.4911972 C24.39516,29.6454866 24.1485001,29.7927337 23.8989591,29.9345391 C23.8731886,29.8684379 23.844377,29.8021767 23.8109234,29.7363956 C23.4659837,29.059219 22.8452523,28.6830986 22.424602,28.8978873 C22.0039516,29.1126761 21.9426468,29.8353073 22.2880667,30.5128041 C22.3194394,30.574904 22.3538533,30.6328425 22.3889075,30.6888604 C22.1244804,30.804204 21.8566386,30.9122919 21.5853821,31.0131242 C21.5696076,30.9361164 21.5496228,30.8600313 21.5255178,30.7852113 C21.2905427,30.06258 20.7363982,29.5944302 20.2872563,29.7403969 C19.8381144,29.8863636 19.6646042,30.590749 19.8998995,31.3137004 C19.9223956,31.3821225 19.9483052,31.4493749 19.9775309,31.5152049 C19.6973107,31.5868011 19.4141561,31.6508216 19.1280669,31.7072663 C19.124787,31.6256176 19.1167703,31.5442281 19.1040571,31.4635083 C18.985289,30.7127081 18.511017,30.1635723 18.0445881,30.2376761 C17.5781592,30.3117798 17.2964451,30.9801536 17.4158534,31.731114 C17.4275382,31.8048976 17.4435446,31.8758003 17.4614719,31.9454225 C17.1739955,31.9711374 16.8841714,31.9893299 16.5919998,32 C16.6014619,31.9182862 16.6062716,31.8361008 16.6064056,31.7538412 C16.6064056,30.993758 16.2240107,30.3774008 15.7516594,30.3774008 C15.2793081,30.3774008 14.8973934,30.9934379 14.8973934,31.7538412 C14.8973934,31.8287452 14.9018753,31.9014085 14.9089181,31.9727913 C14.6173867,31.9533717 14.3282029,31.9260563 14.0413668,31.8908451 C14.0633307,31.811861 14.0808585,31.7317102 14.093868,31.6507682 C14.2129562,30.8998079 13.9320425,30.2307939 13.4651334,30.1573303 C12.9982243,30.0838668 12.5244324,30.6325224 12.4059844,31.3834827 C12.3947837,31.4550741 12.3872508,31.5271913 12.3834153,31.5995519 C12.0996737,31.5336108 11.8190801,31.4602006 11.5416344,31.3793214 C11.5747103,31.3062295 11.6038831,31.2314337 11.6290298,31.1552497 C11.8638449,30.4321383 11.6908148,29.7277529 11.2415128,29.5819462 C10.7922108,29.4361396 10.2379064,29.9041293 10.0030913,30.6272407 C9.98196269,30.6931818 9.96483576,30.7591229 9.94994973,30.8245839 C9.68210792,30.7151088 9.41821438,30.5986983 9.1582691,30.4753521 C9.19934341,30.4122605 9.23721986,30.3471442 9.27175506,30.2802497 C9.61701489,29.603073 9.55587013,28.8798015 9.1350597,28.665653 C8.71424927,28.4515045 8.09367794,28.8268246 7.74841811,29.5044814 C7.72056683,29.5606594 7.69527659,29.6165173 7.67254738,29.6726953 C7.42786162,29.5231007 7.18776438,29.3673175 6.95225566,29.2053457 C6.99643356,29.1550896 7.03965106,29.103233 7.08030752,29.0473752 C7.52704845,28.4319782 7.58018998,27.7082266 7.19779511,27.4308579 C6.81540024,27.1534891 6.14392829,27.4271767 5.69718736,28.0424136 C5.66565459,28.0856274 5.63652279,28.1298015 5.60899164,28.1739757 C5.39333097,27.9901302 5.18316585,27.8007362 4.97849629,27.6057939 C5.02219399,27.5680218 5.06637188,27.5288092 5.10878906,27.4865557 C5.64548642,26.9491037 5.81083339,26.2426376 5.47693816,25.9087708 C5.14304293,25.574904 4.43667685,25.7400768 3.8990191,26.278009 C3.86812659,26.3080986 3.83899479,26.3401088 3.81066332,26.3721191 C3.62925652,26.1588242 3.45350534,25.9410478 3.28340978,25.71879 C3.32486657,25.6928617 3.36488278,25.665653 3.40489898,25.6366837 C4.01986805,25.1899808 4.29421916,24.5180858 4.01618656,24.1362036 C3.73815395,23.7543214 3.01466094,23.8068182 2.39953181,24.2540013 C2.37248085,24.2736876 2.34687048,24.2943342 2.32126011,24.3146607 C2.17720177,24.0776782 2.03922589,23.8369612 1.90733247,23.5925096 C1.94238667,23.5769846 1.97712073,23.5611396 2.01169474,23.5433739 C2.68924915,23.1984635 3.06540149,22.5776248 2.85043443,22.1570102 C2.63546736,21.7363956 1.91293474,21.675096 1.17983783,22.0512164 C1.07611583,21.7973752 0.978796413,21.5402796 0.963910384,21.2580026 C1.68644301,21.0230474 2.15527289,20.4691101 2.00897363,20.0200064 C1.86267438,19.5709027 1.15838915,19.3974072 0.411846798,19.6410051 C0.350168485,19.3764938 0.295319604,19.1097418 0.28587578,18.8361076 C1.03673988,18.7171895 1.58560217,18.2429577 1.51181228,17.7765685 C1.43834253,17.3140205 0.780316028,17.0334507 0.0369749749,17.1454866 C0.0178739056,16.8780943 0.00554891398,16.6091016 0,16.3385083 C0.758067017,16.3369078 1.37207569,15.9551857 1.37207569,15.4839949 C1.37175556,15.0243278 0.787198816,14.6502881 0.0545821058,14.631242 C0.0772046012,14.3627828 0.106549819,14.0963508 0.14261776,13.8319462 C0.8755546,13.9338988 1.51997559,13.6550896 1.59280509,13.1976633 C1.66307354,12.7514405 1.16287096,12.2984955 0.461306829,12.15637 C0.52554618,11.8962335 0.595921348,11.6387644 0.672432335,11.3839629 C1.36775394,11.5824264 2.02738109,11.40637 2.16807807,10.9742318 C2.3049335,10.5516965 1.89916916,10.0361716 1.24850564,9.78104994 C1.35180081,9.53574477 1.46117844,9.29364063 1.57663854,9.05473752 C2.22153972,9.34138924 2.88116687,9.26648528 3.0844492,8.8681178 C3.28260946,8.47935339 2.97736583,7.9212548 2.39617045,7.5662612 C2.53638724,7.34048229 2.68204623,7.11849125 2.83314742,6.90028809 C3.41690385,7.26488476 4.06116477,7.28617157 4.31934934,6.93101793 C4.57113131,6.58434699 4.36784898,5.99919974 3.86828666,5.56001921 C4.04169022,5.35782117 4.21994908,5.16069142 4.40306324,4.96862996 C4.91783172,5.40300896 5.53584202,5.51664533 5.84188596,5.2109475 C6.14008674,4.91293214 6.03892576,4.31578105 5.62899974,3.80857875 C5.83185523,3.63615023 6.03860564,3.46862996 6.24925095,3.30601793 C6.68798864,3.80041613 7.26934408,4.00080026 7.61444385,3.7503201 C7.95250076,3.50464149 7.94945953,2.91053137 7.63477208,2.35035211 C7.86131717,2.21100085 8.0915971,2.07730474 8.32561187,1.94926376 C8.68143598,2.49519846 9.21733302,2.77704866 9.59380549,2.5849872 C9.96275492,2.39660691 10.0549523,1.81738156 9.83886474,1.22071063 C10.0844042,1.11827785 10.3328248,1.02176697 10.5841266,0.931177977 C10.8515949,1.51824584 11.3325897,1.87275928 11.7311511,1.74327785 C12.1221895,1.61635723 12.3038631,1.06546095 12.1890966,0.447983355 C12.4475479,0.384496372 12.7081868,0.32762484 12.9710133,0.277368758 C13.1454839,0.89212548 13.5626129,1.31161972 13.9739795,1.24663892 C14.377823,1.18229834 14.6427303,0.672215109 14.6289647,0.0480153649 C14.8942455,0.0256081946 15.1610202,0.00960307298 15.4292889,0 C15.5070804,0.631081946 15.8525003,1.10691421 16.2672282,1.10691421 C16.6761939,1.10691421 17.0177722,0.644206146 17.1018062,0.0262483995 C17.369648,0.0442808365 17.6354624,0.068822023 17.8992492,0.099871959 C17.87652,0.736715749 18.1435081,1.26248399 18.5537543,1.32746479 C18.9596787,1.39148528 19.3715255,0.983994878 19.5496776,0.381882202 C19.8109034,0.44078105 20.0695682,0.505975245 20.3256719,0.577464789 C20.1995408,1.20726633 20.380254,1.77368758 20.7773748,1.90284891 C21.1712944,2.03072983 21.6455665,1.68677977 21.9149556,1.11283611 C22.1632695,1.21164106 22.4082754,1.3161545 22.6499732,1.42637644 C22.4206003,2.03265045 22.5089561,2.62756082 22.883828,2.81882202 C23.2556585,3.00784251 23.7832322,2.73639565 24.1392164,2.20326504 C24.3688561,2.33888178 24.5946008,2.47983355 24.8164507,2.62612036 C24.4867171,3.19382202 24.4801545,3.80489757 24.8212526,4.05297695 C25.1623508,4.30105634 25.7349026,4.10787452 26.1717195,3.62516005 C26.3773495,3.79417414 26.5786043,3.96798976 26.7754841,4.14660691 C26.348271,4.65941101 26.2389468,5.27304738 26.5413092,5.57522407 C26.8436717,5.87740077 27.4506375,5.7693662 27.962845,5.34667093 C28.1396632,5.54502774 28.3115729,5.74775928 28.4785738,5.95486556 C27.9602839,6.39628681 27.7467574,6.99615877 28.0022209,7.3481114 C28.2576844,7.70006402 28.8925015,7.68197823 29.471616,7.32714469 C29.6162079,7.54961588 29.7549307,7.776035 29.8877846,8.00640205 C29.2865811,8.36011524 28.9670917,8.93229834 29.1682932,9.32730474 C29.3694946,9.72231114 30.0187176,9.80009603 30.6578564,9.52256722 C30.7645663,9.76531157 30.8659407,10.0110435 30.9619796,10.2597631 C30.2922684,10.5104033 29.8701774,11.0353713 30.0094338,11.4644686 C30.1486902,11.8935659 30.7982333,12.0697823 31.486512,11.8798015 C31.5550198,12.1371639 31.6170182,12.3968737 31.6725074,12.6589309 C30.9526958,12.7930538 30.4352063,13.2538412 30.506275,13.7071063 C30.5773438,14.1603713 31.2124811,14.4377401 31.9378948,14.3434699 C31.9652126,14.6092616 31.9859143,14.8766539 32,15.1456466 C31.2504164,15.1534891 30.6460116,15.5324904 30.6460116,15.9996799 Z M15.5257325,23.3117144 C19.6840926,23.3115009 23.0550571,19.8831163 23.055267,15.6539238 C23.0542172,11.426214 19.6839022,7.99964409 15.5269999,8 C11.3700976,8.00035591 8.00034995,11.427503 8,15.6552128 C7.99965005,19.8829227 11.3688303,23.3106467 15.5257325,23.3117144 Z M8,9 L10.3264642,9 L12.3926247,16.0531453 L15.5,11 L18.6073753,16.0368764 L20.6735358,9 L23,9 L19,20.64859 L15.5276335,14.3434699 L12,20.64859 L8,9 Z" id="Path_15-Copy" fill-rule="nonzero"></path>
                            </g>
                        </g>
                    </g>
                </g>
            </g>
        </g>
    </g>
</svg>