<?xml version="1.0" encoding="UTF-8"?>
<svg width="22px" height="36px" viewBox="0 0 22 36" version="1.1" xmlns="http://www.w3.org/2000/svg" xmlns:xlink="http://www.w3.org/1999/xlink">
    <!-- Generator: Sketch 50.2 (55047) - http://www.bohemiancoding.com/sketch -->
    <title>Artboard 1</title>
    <desc>Created with Sketch.</desc>
    <defs></defs>
    <g id="Artboard-1" stroke="none" stroke-width="1" fill="none" fill-rule="evenodd">
        <g id="Group">
            <path d="M9.8398,25.811 C9.5028,25.362 9.1978,24.927 8.8588,24.522 C8.7638,24.41 8.5488,24.308 8.4158,24.333 C6.3898,24.728 4.4658,25.362 3.0758,27.007 C1.9818,28.301 1.9348,29.874 3.1158,31.078 C3.8778,31.854 4.8378,32.521 5.8288,32.971 C8.2048,34.048 10.7438,34.166 13.3028,33.809 C15.1378,33.553 16.8788,33.01 18.3578,31.839 C20.5248,30.122 20.5228,27.853 18.3598,26.144 C17.0478,25.107 15.5038,24.618 13.8898,24.321 C13.7308,24.292 13.4798,24.377 13.3748,24.499 C13.0188,24.918 12.7068,25.377 12.3808,25.818 C12.9588,26.076 13.4998,26.247 13.9658,26.539 C14.9268,27.14 14.9478,28.088 14.0668,28.788 C12.6738,29.892 9.5508,29.918 8.1448,28.837 C7.3038,28.192 7.2718,27.306 8.1358,26.687 C8.6208,26.339 9.2058,26.13 9.8398,25.811 M19.1188,8.433 C19.1138,3.981 15.5898,0.451 11.1518,0.45 C6.7218,0.449 3.1648,3.991 3.1478,8.421 C3.1308,12.827 6.7278,16.43 11.1398,16.428 C15.5648,16.426 19.1248,12.859 19.1188,8.433 M13.9978,23.616 C15.4908,24.112 16.9268,24.474 18.2578,25.069 C19.2098,25.496 20.1268,26.127 20.8758,26.856 C22.7348,28.666 22.7558,31.01 20.9638,32.88 C20.3248,33.547 19.5648,34.178 18.7378,34.575 C13.7568,36.973 8.6998,37.044 3.6788,34.727 C2.7178,34.284 1.8298,33.539 1.1108,32.749 C-0.3622,31.133 -0.3482,29.107 1.0248,27.402 C2.4988,25.572 4.5578,24.73 6.7498,24.143 C7.2358,24.013 7.7308,23.914 8.3088,23.78 C7.7658,22.985 7.2568,22.264 6.7718,21.526 C4.8748,18.635 3.0218,15.715 1.9788,12.381 C-0.1512,5.569 5.2118,-0.738 12.2958,0.07 C19.7258,0.917 21.9048,8.249 20.0738,12.974 C18.7038,16.511 16.7098,19.682 14.5808,22.785 C14.3838,23.073 14.1808,23.356 13.9978,23.616" id="Fill-4" fill="#006837"></path>
            <path d="M19.1191,8.4326 C19.1251,12.8586 15.5641,16.4256 11.1401,16.4276 C6.7271,16.4306 3.1311,12.8276 3.1481,8.4216 C3.1641,3.9916 6.7221,0.4486 11.1521,0.4506 C15.5901,0.4516 19.1141,3.9816 19.1191,8.4326" id="Fill-7" fill="#FFFFFF"></path>
        </g>
    </g>
</svg>