<?xml version="1.0" encoding="UTF-8"?>
<svg width="16px" height="13px" viewBox="0 0 16 13" version="1.1" xmlns="http://www.w3.org/2000/svg" xmlns:xlink="http://www.w3.org/1999/xlink">
    <!-- Generator: Sketch 50.2 (55047) - http://www.bohemiancoding.com/sketch -->
    <title>post-twitter</title>
    <desc>Created with Sketch.</desc>
    <defs></defs>
    <g id="home-page" stroke="none" stroke-width="1" fill="none" fill-rule="evenodd">
        <g id="sky-blue-bg" transform="translate(-464.000000, -769.000000)" fill="#15C9FF">
            <g id="Group" transform="translate(348.000000, 223.000000)">
                <g id="Group-3">
                    <g id="post-twitter" transform="translate(116.000000, 546.000000)">
                        <path d="M14.625,3.23082706 C14.5,8.84042781 10.875,12.7427588 5.375,12.9866545 C3.125,13.1086023 1.5,12.3769152 0,11.5232803 C1.625,11.767176 3.75,11.1574368 4.875,10.1818541 C3.25,10.0599062 2.25,9.20627134 1.75,7.86484507 C2.25,7.98679291 2.75,7.86484507 3.125,7.86484507 C1.625,7.3770537 0.625,6.5234188 0.5,4.57225332 C0.875,4.81614901 1.375,4.93809685 1.875,4.93809685 C0.75,4.32835764 -1.11022302e-15,2.01134863 0.875,0.547974521 C2.5,2.25524432 4.5,3.71861843 7.75,3.96251411 C6.875,0.547974521 11.625,-1.28124312 13.5,1.03576589 C14.375,0.913818049 15,0.547974521 15.625,0.304078836 C15.375,1.15771373 14.875,1.6455051 14.25,2.13329647 C14.875,2.01134863 15.5,1.88940079 16,1.6455051 C15.875,2.25524432 15.25,2.74303569 14.625,3.23082706 L14.625,3.23082706 Z" id="Shape"></path>
                    </g>
                </g>
            </g>
        </g>
    </g>
</svg>