<?xml version="1.0" encoding="UTF-8"?>
<svg width="59px" height="59px" viewBox="0 0 59 59" version="1.1" xmlns="http://www.w3.org/2000/svg" xmlns:xlink="http://www.w3.org/1999/xlink">
    <!-- Generator: Sketch 50.2 (55047) - http://www.bohemiancoding.com/sketch -->
    <title>Group</title>
    <desc>Created with Sketch.</desc>
    <defs></defs>
    <g id="Page-1" stroke="none" stroke-width="1" fill="none" fill-rule="evenodd">
        <g id="Group">
            <circle id="Oval" fill="#2A3C85" cx="29.5" cy="29.5" r="29.5"></circle>
            <g id="logo-icon-white" transform="translate(10.000000, 10.000000)" fill="#FFFFFF" fill-rule="nonzero">
                <path d="M39,22.1832227 L35.8784725,22.861801 C35.3989393,22.9662235 35.0163943,23.3271406 34.8845987,23.7995771 C34.5415924,25.0300072 34.0482037,26.2198846 33.4182884,27.3360918 C33.1770011,27.7635825 33.1918704,28.289413 33.4574893,28.7023725 L35.1860388,31.3910022 L31.3913401,35.1860388 L28.7023725,33.4574893 C28.289413,33.1918704 27.7635825,33.1770011 27.3364296,33.4182884 C26.2198846,34.0482037 25.0300072,34.5415924 23.7995771,34.8845987 C23.3271406,35.0163943 22.9662235,35.3989393 22.861801,35.8784725 L22.1832227,39 L16.8167773,39 L16.138199,35.8784725 C16.0337765,35.3989393 15.6728594,35.0163943 15.2004229,34.8845987 C13.9699929,34.5415924 12.7801154,34.0482037 11.6639083,33.4182884 C11.2364175,33.1770011 10.710587,33.1922084 10.2976275,33.4574893 L7.60899779,35.1860388 L3.8142991,31.3910022 L5.54251075,28.7023725 C5.80812957,28.289413 5.82333674,27.7635825 5.5820495,27.3360918 C4.95213424,26.2198846 4.45874569,25.0300072 4.11540132,23.7995771 C3.9836057,23.3271406 3.60139852,22.9662235 3.12186546,22.861801 L0,22.1832227 L0,16.8167773 L3.12152754,16.138199 C3.60106059,16.0337765 3.9836057,15.6728594 4.11540132,15.2004229 C4.45840768,13.9699929 4.95179633,12.7801154 5.58171158,11.6639083 C5.82299881,11.2364175 5.80812957,10.710587 5.54251075,10.2976275 L3.81396119,7.60899779 L7.60865988,3.81396119 L10.2976275,5.54251075 C10.710587,5.80812957 11.2364175,5.82299881 11.6635704,5.58171158 C12.7801154,4.95179633 13.9699929,4.45840768 15.2004229,4.11540132 C15.6728594,3.9836057 16.0337765,3.60106059 16.138199,3.12152754 L16.8167773,0 L22.1832227,0 L22.861801,3.12152754 C22.9662235,3.60106059 23.3271406,3.9836057 23.7995771,4.11540132 C25.0300072,4.45840768 26.2198846,4.95179633 27.3360918,5.58171158 C27.7635825,5.82299881 28.289413,5.80779166 28.7023725,5.54251075 L31.3910022,3.81396119 L35.1857009,7.60899779 L33.4574893,10.2976275 C33.1918704,10.710587 33.1766633,11.2364175 33.4179505,11.6639083 C34.0482037,12.7801154 34.5412544,13.9699929 34.8845987,15.2004229 C35.0163943,15.6728594 35.3986015,16.0337765 35.8781345,16.138199 L39,16.8167773 L39,22.1832227 Z M11,11 L15.797625,28 L24,16.9278253 L11,11 Z M16,30 L27,25.5 L25.6105264,17 L16,30 Z M27,16 L27.9230769,25 L31,20.0263158 L27,16 Z" id="Combined-Shape"></path>
            </g>
        </g>
    </g>
</svg>