<?xml version="1.0" encoding="UTF-8"?>
<svg width="70px" height="19px" viewBox="0 0 70 19" version="1.1" xmlns="http://www.w3.org/2000/svg" xmlns:xlink="http://www.w3.org/1999/xlink">
    <!-- Generator: Sketch 50.2 (55047) - http://www.bohemiancoding.com/sketch -->
    <title>LOGO</title>
    <desc>Created with Sketch.</desc>
    <defs></defs>
    <g id="login/register/forgot-pwd" stroke="none" stroke-width="1" fill="none" fill-rule="evenodd">
        <g id="start-page" transform="translate(-63.000000, -16.000000)" fill="#4A4A4A">
            <path d="M63.752,34 L63.752,17.008 L67.88,17.008 L67.88,30.424 L74.456,30.424 L74.456,34 L63.752,34 Z M93.368,25.432 C93.368,26.7760067 93.1360023,28.0039944 92.672,29.116 C92.2079977,30.2280056 91.5640041,31.179996 90.74,31.972 C89.9159959,32.764004 88.9360057,33.3759978 87.8,33.808 C86.6639943,34.2400022 85.4320066,34.456 84.104,34.456 C82.7759934,34.456 81.5480056,34.2400022 80.42,33.808 C79.2919944,33.3759978 78.3160041,32.764004 77.492,31.972 C76.6679959,31.179996 76.0240023,30.2280056 75.56,29.116 C75.0959977,28.0039944 74.864,26.7760067 74.864,25.432 C74.864,24.0719932 75.0959977,22.8440055 75.56,21.748 C76.0240023,20.6519945 76.6679959,19.7200038 77.492,18.952 C78.3160041,18.1839962 79.2919944,17.5920021 80.42,17.176 C81.5480056,16.7599979 82.7759934,16.552 84.104,16.552 C85.4320066,16.552 86.6639943,16.7599979 87.8,17.176 C88.9360057,17.5920021 89.9159959,18.1839962 90.74,18.952 C91.5640041,19.7200038 92.2079977,20.6519945 92.672,21.748 C93.1360023,22.8440055 93.368,24.0719932 93.368,25.432 Z M88.976,25.432 C88.976,24.6959963 88.8560012,24.0080032 88.616,23.368 C88.3759988,22.7279968 88.0440021,22.1800023 87.62,21.724 C87.1959979,21.2679977 86.684003,20.9080013 86.084,20.644 C85.483997,20.3799987 84.8240036,20.248 84.104,20.248 C83.3839964,20.248 82.728003,20.3799987 82.136,20.644 C81.543997,20.9080013 81.0320022,21.2679977 80.6,21.724 C80.1679978,22.1800023 79.8360012,22.7279968 79.604,23.368 C79.3719988,24.0080032 79.256,24.6959963 79.256,25.432 C79.256,26.2000038 79.3759988,26.9079968 79.616,27.556 C79.8560012,28.2040032 80.1879979,28.7599977 80.612,29.224 C81.0360021,29.6880023 81.543997,30.0519987 82.136,30.316 C82.728003,30.5800013 83.3839964,30.712 84.104,30.712 C84.8240036,30.712 85.479997,30.5800013 86.072,30.316 C86.664003,30.0519987 87.1759978,29.6880023 87.608,29.224 C88.0400022,28.7599977 88.3759988,28.2040032 88.616,27.556 C88.8560012,26.9079968 88.976,26.2000038 88.976,25.432 Z M111.176,32.968 C110.343996,33.4000022 109.372006,33.7519986 108.26,34.024 C107.147994,34.2960014 105.936007,34.432 104.624,34.432 C103.263993,34.432 102.012006,34.2160022 100.868,33.784 C99.7239943,33.3519978 98.7400041,32.7440039 97.916,31.96 C97.0919959,31.1759961 96.4480023,30.2360055 95.984,29.14 C95.5199977,28.0439945 95.288,26.8240067 95.288,25.48 C95.288,24.1199932 95.5239976,22.8880055 95.996,21.784 C96.4680024,20.6799945 97.1199958,19.7400039 97.952,18.964 C98.7840042,18.1879961 99.7599944,17.5920021 100.88,17.176 C102.000006,16.7599979 103.207994,16.552 104.504,16.552 C105.848007,16.552 107.095994,16.755998 108.248,17.164 C109.400006,17.572002 110.335996,18.1199966 111.056,18.808 L108.464,21.76 C108.063998,21.2959977 107.536003,20.9160015 106.88,20.62 C106.223997,20.3239985 105.480004,20.176 104.648,20.176 C103.927996,20.176 103.264003,20.3079987 102.656,20.572 C102.047997,20.8360013 101.520002,21.2039976 101.072,21.676 C100.623998,22.1480024 100.276001,22.7079968 100.028,23.356 C99.7799988,24.0040032 99.656,24.7119962 99.656,25.48 C99.656,26.2640039 99.7679989,26.9839967 99.992,27.64 C100.216001,28.2960033 100.547998,28.8599976 100.988,29.332 C101.428002,29.8040024 101.971997,30.1719987 102.62,30.436 C103.268003,30.7000013 104.007996,30.832 104.84,30.832 C105.320002,30.832 105.775998,30.7960004 106.208,30.724 C106.640002,30.6519996 107.039998,30.5360008 107.408,30.376 L107.408,27.28 L104.168,27.28 L104.168,23.968 L111.176,23.968 L111.176,32.968 Z M132.248,25.432 C132.248,26.7760067 132.016002,28.0039944 131.552,29.116 C131.087998,30.2280056 130.444004,31.179996 129.62,31.972 C128.795996,32.764004 127.816006,33.3759978 126.68,33.808 C125.543994,34.2400022 124.312007,34.456 122.984,34.456 C121.655993,34.456 120.428006,34.2400022 119.3,33.808 C118.171994,33.3759978 117.196004,32.764004 116.372,31.972 C115.547996,31.179996 114.904002,30.2280056 114.44,29.116 C113.975998,28.0039944 113.744,26.7760067 113.744,25.432 C113.744,24.0719932 113.975998,22.8440055 114.44,21.748 C114.904002,20.6519945 115.547996,19.7200038 116.372,18.952 C117.196004,18.1839962 118.171994,17.5920021 119.3,17.176 C120.428006,16.7599979 121.655993,16.552 122.984,16.552 C124.312007,16.552 125.543994,16.7599979 126.68,17.176 C127.816006,17.5920021 128.795996,18.1839962 129.62,18.952 C130.444004,19.7200038 131.087998,20.6519945 131.552,21.748 C132.016002,22.8440055 132.248,24.0719932 132.248,25.432 Z M127.856,25.432 C127.856,24.6959963 127.736001,24.0080032 127.496,23.368 C127.255999,22.7279968 126.924002,22.1800023 126.5,21.724 C126.075998,21.2679977 125.564003,20.9080013 124.964,20.644 C124.363997,20.3799987 123.704004,20.248 122.984,20.248 C122.263996,20.248 121.608003,20.3799987 121.016,20.644 C120.423997,20.9080013 119.912002,21.2679977 119.48,21.724 C119.047998,22.1800023 118.716001,22.7279968 118.484,23.368 C118.251999,24.0080032 118.136,24.6959963 118.136,25.432 C118.136,26.2000038 118.255999,26.9079968 118.496,27.556 C118.736001,28.2040032 119.067998,28.7599977 119.492,29.224 C119.916002,29.6880023 120.423997,30.0519987 121.016,30.316 C121.608003,30.5800013 122.263996,30.712 122.984,30.712 C123.704004,30.712 124.359997,30.5800013 124.952,30.316 C125.544003,30.0519987 126.055998,29.6880023 126.488,29.224 C126.920002,28.7599977 127.255999,28.2040032 127.496,27.556 C127.736001,26.9079968 127.856,26.2000038 127.856,25.432 Z" id="LOGO"></path>
        </g>
    </g>
</svg>