<?xml version="1.0" encoding="UTF-8"?>
<svg width="32px" height="32px" viewBox="0 0 32 32" version="1.1" xmlns="http://www.w3.org/2000/svg" xmlns:xlink="http://www.w3.org/1999/xlink">
    <!-- Generator: Sketch 50.2 (55047) - http://www.bohemiancoding.com/sketch -->
    <title>Path_15-Copy</title>
    <desc>Created with Sketch.</desc>
    <defs></defs>
    <g id="Page-1" stroke="none" stroke-width="1" fill="none" fill-rule="evenodd">
        <g id="logo" fill="#FF3B30" fill-rule="nonzero">
            <path d="M30.6460116,15.9996799 C30.6460116,16.4667093 31.2504164,16.8458707 32,16.8529129 C31.9857009,17.123933 31.9647857,17.3930858 31.918527,17.6566901 C31.167823,17.5377721 30.498752,17.8181818 30.4252822,18.2855314 C30.3518125,18.7528809 30.9005147,19.2261524 31.6709067,19.3474712 C31.6139236,19.6150768 31.5503779,19.8800149 31.4232864,20.1216389 C30.7002736,19.8868438 29.9953481,20.0600192 29.8498492,20.5091229 C29.7043503,20.9582266 30.1718996,21.512644 30.9522156,21.7634443 C30.8528687,22.0211268 30.7472793,22.2752881 30.6354474,22.5259283 C30.6064756,22.5099232 30.577824,22.4939181 30.5483721,22.4779129 C29.8709777,22.1331626 29.1473247,22.193822 28.9334781,22.6147567 C28.7196315,23.0356914 29.0948234,23.65637 29.8580125,24.0412932 C29.717689,24.2816901 29.5716565,24.5180858 29.4199151,24.7504802 C29.3861414,24.7229513 29.3514073,24.6955826 29.3152327,24.6693342 C28.6999435,24.2224712 27.9754901,24.1694942 27.6985779,24.5516965 C27.4216658,24.9338988 27.6948964,25.6056338 28.3100256,26.0521767 C28.3447596,26.0771447 28.3794937,26.1005122 28.4145479,26.1232394 C28.2371961,26.3410158 28.0541353,26.5536705 27.8653655,26.7612036 C27.8301512,26.7207106 27.7936564,26.6797375 27.7542805,26.640685 C27.2166227,26.103233 26.5096164,25.93742 26.1762014,26.2716069 C25.8427863,26.6057939 26.0078132,27.3119398 26.545631,27.8493918 C26.582766,27.8863636 26.6207014,27.9210948 26.6587968,27.9548656 C26.4471911,28.1434059 26.2306234,28.3262911 26.0090937,28.5035211 C25.9767606,28.4497439 25.9425067,28.3962868 25.9044113,28.3434699 C25.4576704,27.7285531 24.785238,27.4540653 24.4034834,27.7322343 C24.0217288,28.0104033 24.0745502,28.7338348 24.5216113,29.3487516 C24.557946,29.3986876 24.5962015,29.4455826 24.6352573,29.4911972 C24.39516,29.6454866 24.1485001,29.7927337 23.8989591,29.9345391 C23.8731886,29.8684379 23.844377,29.8021767 23.8109234,29.7363956 C23.4659837,29.059219 22.8452523,28.6830986 22.424602,28.8978873 C22.0039516,29.1126761 21.9426468,29.8353073 22.2880667,30.5128041 C22.3194394,30.574904 22.3538533,30.6328425 22.3889075,30.6888604 C22.1244804,30.804204 21.8566386,30.9122919 21.5853821,31.0131242 C21.5696076,30.9361164 21.5496228,30.8600313 21.5255178,30.7852113 C21.2905427,30.06258 20.7363982,29.5944302 20.2872563,29.7403969 C19.8381144,29.8863636 19.6646042,30.590749 19.8998995,31.3137004 C19.9223956,31.3821225 19.9483052,31.4493749 19.9775309,31.5152049 C19.6973107,31.5868011 19.4141561,31.6508216 19.1280669,31.7072663 C19.124787,31.6256176 19.1167703,31.5442281 19.1040571,31.4635083 C18.985289,30.7127081 18.511017,30.1635723 18.0445881,30.2376761 C17.5781592,30.3117798 17.2964451,30.9801536 17.4158534,31.731114 C17.4275382,31.8048976 17.4435446,31.8758003 17.4614719,31.9454225 C17.1739955,31.9711374 16.8841714,31.9893299 16.5919998,32 C16.6014619,31.9182862 16.6062716,31.8361008 16.6064056,31.7538412 C16.6064056,30.993758 16.2240107,30.3774008 15.7516594,30.3774008 C15.2793081,30.3774008 14.8973934,30.9934379 14.8973934,31.7538412 C14.8973934,31.8287452 14.9018753,31.9014085 14.9089181,31.9727913 C14.6173867,31.9533717 14.3282029,31.9260563 14.0413668,31.8908451 C14.0633307,31.811861 14.0808585,31.7317102 14.093868,31.6507682 C14.2129562,30.8998079 13.9320425,30.2307939 13.4651334,30.1573303 C12.9982243,30.0838668 12.5244324,30.6325224 12.4059844,31.3834827 C12.3947837,31.4550741 12.3872508,31.5271913 12.3834153,31.5995519 C12.0996737,31.5336108 11.8190801,31.4602006 11.5416344,31.3793214 C11.5747103,31.3062295 11.6038831,31.2314337 11.6290298,31.1552497 C11.8638449,30.4321383 11.6908148,29.7277529 11.2415128,29.5819462 C10.7922108,29.4361396 10.2379064,29.9041293 10.0030913,30.6272407 C9.98196269,30.6931818 9.96483576,30.7591229 9.94994973,30.8245839 C9.68210792,30.7151088 9.41821438,30.5986983 9.1582691,30.4753521 C9.19934341,30.4122605 9.23721986,30.3471442 9.27175506,30.2802497 C9.61701489,29.603073 9.55587013,28.8798015 9.1350597,28.665653 C8.71424927,28.4515045 8.09367794,28.8268246 7.74841811,29.5044814 C7.72056683,29.5606594 7.69527659,29.6165173 7.67254738,29.6726953 C7.42786162,29.5231007 7.18776438,29.3673175 6.95225566,29.2053457 C6.99643356,29.1550896 7.03965106,29.103233 7.08030752,29.0473752 C7.52704845,28.4319782 7.58018998,27.7082266 7.19779511,27.4308579 C6.81540024,27.1534891 6.14392829,27.4271767 5.69718736,28.0424136 C5.66565459,28.0856274 5.63652279,28.1298015 5.60899164,28.1739757 C5.39333097,27.9901302 5.18316585,27.8007362 4.97849629,27.6057939 C5.02219399,27.5680218 5.06637188,27.5288092 5.10878906,27.4865557 C5.64548642,26.9491037 5.81083339,26.2426376 5.47693816,25.9087708 C5.14304293,25.574904 4.43667685,25.7400768 3.8990191,26.278009 C3.86812659,26.3080986 3.83899479,26.3401088 3.81066332,26.3721191 C3.62925652,26.1588242 3.45350534,25.9410478 3.28340978,25.71879 C3.32486657,25.6928617 3.36488278,25.665653 3.40489898,25.6366837 C4.01986805,25.1899808 4.29421916,24.5180858 4.01618656,24.1362036 C3.73815395,23.7543214 3.01466094,23.8068182 2.39953181,24.2540013 C2.37248085,24.2736876 2.34687048,24.2943342 2.32126011,24.3146607 C2.17720177,24.0776782 2.03922589,23.8369612 1.90733247,23.5925096 C1.94238667,23.5769846 1.97712073,23.5611396 2.01169474,23.5433739 C2.68924915,23.1984635 3.06540149,22.5776248 2.85043443,22.1570102 C2.63546736,21.7363956 1.91293474,21.675096 1.17983783,22.0512164 C1.07611583,21.7973752 0.978796413,21.5402796 0.963910384,21.2580026 C1.68644301,21.0230474 2.15527289,20.4691101 2.00897363,20.0200064 C1.86267438,19.5709027 1.15838915,19.3974072 0.411846798,19.6410051 C0.350168485,19.3764938 0.295319604,19.1097418 0.28587578,18.8361076 C1.03673988,18.7171895 1.58560217,18.2429577 1.51181228,17.7765685 C1.43834253,17.3140205 0.780316028,17.0334507 0.0369749749,17.1454866 C0.0178739056,16.8780943 0.00554891398,16.6091016 0,16.3385083 C0.758067017,16.3369078 1.37207569,15.9551857 1.37207569,15.4839949 C1.37175556,15.0243278 0.787198816,14.6502881 0.0545821058,14.631242 C0.0772046012,14.3627828 0.106549819,14.0963508 0.14261776,13.8319462 C0.8755546,13.9338988 1.51997559,13.6550896 1.59280509,13.1976633 C1.66307354,12.7514405 1.16287096,12.2984955 0.461306829,12.15637 C0.52554618,11.8962335 0.595921348,11.6387644 0.672432335,11.3839629 C1.36775394,11.5824264 2.02738109,11.40637 2.16807807,10.9742318 C2.3049335,10.5516965 1.89916916,10.0361716 1.24850564,9.78104994 C1.35180081,9.53574477 1.46117844,9.29364063 1.57663854,9.05473752 C2.22153972,9.34138924 2.88116687,9.26648528 3.0844492,8.8681178 C3.28260946,8.47935339 2.97736583,7.9212548 2.39617045,7.5662612 C2.53638724,7.34048229 2.68204623,7.11849125 2.83314742,6.90028809 C3.41690385,7.26488476 4.06116477,7.28617157 4.31934934,6.93101793 C4.57113131,6.58434699 4.36784898,5.99919974 3.86828666,5.56001921 C4.04169022,5.35782117 4.21994908,5.16069142 4.40306324,4.96862996 C4.91783172,5.40300896 5.53584202,5.51664533 5.84188596,5.2109475 C6.14008674,4.91293214 6.03892576,4.31578105 5.62899974,3.80857875 C5.83185523,3.63615023 6.03860564,3.46862996 6.24925095,3.30601793 C6.68798864,3.80041613 7.26934408,4.00080026 7.61444385,3.7503201 C7.95250076,3.50464149 7.94945953,2.91053137 7.63477208,2.35035211 C7.86131717,2.21100085 8.0915971,2.07730474 8.32561187,1.94926376 C8.68143598,2.49519846 9.21733302,2.77704866 9.59380549,2.5849872 C9.96275492,2.39660691 10.0549523,1.81738156 9.83886474,1.22071063 C10.0844042,1.11827785 10.3328248,1.02176697 10.5841266,0.931177977 C10.8515949,1.51824584 11.3325897,1.87275928 11.7311511,1.74327785 C12.1221895,1.61635723 12.3038631,1.06546095 12.1890966,0.447983355 C12.4475479,0.384496372 12.7081868,0.32762484 12.9710133,0.277368758 C13.1454839,0.89212548 13.5626129,1.31161972 13.9739795,1.24663892 C14.377823,1.18229834 14.6427303,0.672215109 14.6289647,0.0480153649 C14.8942455,0.0256081946 15.1610202,0.00960307298 15.4292889,0 C15.5070804,0.631081946 15.8525003,1.10691421 16.2672282,1.10691421 C16.6761939,1.10691421 17.0177722,0.644206146 17.1018062,0.0262483995 C17.369648,0.0442808365 17.6354624,0.068822023 17.8992492,0.099871959 C17.87652,0.736715749 18.1435081,1.26248399 18.5537543,1.32746479 C18.9596787,1.39148528 19.3715255,0.983994878 19.5496776,0.381882202 C19.8109034,0.44078105 20.0695682,0.505975245 20.3256719,0.577464789 C20.1995408,1.20726633 20.380254,1.77368758 20.7773748,1.90284891 C21.1712944,2.03072983 21.6455665,1.68677977 21.9149556,1.11283611 C22.1632695,1.21164106 22.4082754,1.3161545 22.6499732,1.42637644 C22.4206003,2.03265045 22.5089561,2.62756082 22.883828,2.81882202 C23.2556585,3.00784251 23.7832322,2.73639565 24.1392164,2.20326504 C24.3688561,2.33888178 24.5946008,2.47983355 24.8164507,2.62612036 C24.4867171,3.19382202 24.4801545,3.80489757 24.8212526,4.05297695 C25.1623508,4.30105634 25.7349026,4.10787452 26.1717195,3.62516005 C26.3773495,3.79417414 26.5786043,3.96798976 26.7754841,4.14660691 C26.348271,4.65941101 26.2389468,5.27304738 26.5413092,5.57522407 C26.8436717,5.87740077 27.4506375,5.7693662 27.962845,5.34667093 C28.1396632,5.54502774 28.3115729,5.74775928 28.4785738,5.95486556 C27.9602839,6.39628681 27.7467574,6.99615877 28.0022209,7.3481114 C28.2576844,7.70006402 28.8925015,7.68197823 29.471616,7.32714469 C29.6162079,7.54961588 29.7549307,7.776035 29.8877846,8.00640205 C29.2865811,8.36011524 28.9670917,8.93229834 29.1682932,9.32730474 C29.3694946,9.72231114 30.0187176,9.80009603 30.6578564,9.52256722 C30.7645663,9.76531157 30.8659407,10.0110435 30.9619796,10.2597631 C30.2922684,10.5104033 29.8701774,11.0353713 30.0094338,11.4644686 C30.1486902,11.8935659 30.7982333,12.0697823 31.486512,11.8798015 C31.5550198,12.1371639 31.6170182,12.3968737 31.6725074,12.6589309 C30.9526958,12.7930538 30.4352063,13.2538412 30.506275,13.7071063 C30.5773438,14.1603713 31.2124811,14.4377401 31.9378948,14.3434699 C31.9652126,14.6092616 31.9859143,14.8766539 32,15.1456466 C31.2504164,15.1534891 30.6460116,15.5324904 30.6460116,15.9996799 Z M15.5257325,23.3117144 C19.6840926,23.3115009 23.0550571,19.8831163 23.055267,15.6539238 C23.0542172,11.426214 19.6839022,7.99964409 15.5269999,8 C11.3700976,8.00035591 8.00034995,11.427503 8,15.6552128 C7.99965005,19.8829227 11.3688303,23.3106467 15.5257325,23.3117144 Z M8,9 L10.3264642,9 L12.3926247,16.0531453 L15.5,11 L18.6073753,16.0368764 L20.6735358,9 L23,9 L19,20.64859 L15.5276335,14.3434699 L12,20.64859 L8,9 Z" id="Path_15-Copy"></path>
        </g>
    </g>
</svg>