<?xml version="1.0" encoding="UTF-8"?>
<svg width="143px" height="32px" viewBox="0 0 143 32" version="1.1" xmlns="http://www.w3.org/2000/svg" xmlns:xlink="http://www.w3.org/1999/xlink">
    <!-- Generator: Sketch 50.2 (55047) - http://www.bohemiancoding.com/sketch -->
    <title>Group 3</title>
    <desc>Created with Sketch.</desc>
    <defs></defs>
    <g id="homepage-copy" stroke="none" stroke-width="1" fill="none" fill-rule="evenodd">
        <g id="Homepage---1440-" transform="translate(-132.000000, -69.000000)" fill="#F26370">
            <g id="Group-4" transform="translate(132.000000, 69.000000)">
                <g id="Group-5">
                    <g id="Group-3">
                        <path d="M44.256,7.59197784 L47.0717562,7.59197784 L49.2574132,15.8226499 L49.5724628,17.3388264 L49.7299877,17.3388264 L50.1434903,15.8226499 L52.1716224,9.48227574 L54.6526384,9.48227574 L56.7004612,15.8226499 L57.0942732,17.3191358 L57.251798,17.3191358 L57.5471571,15.8226499 L59.5949798,7.59197784 L62.4107361,7.59197784 L58.6695215,21.6904497 L56.1097431,21.6904497 L53.9043955,14.8971916 L53.4908929,13.3416339 L53.333368,13.3416339 L52.9198654,14.8971916 L50.7145178,21.6904497 L48.1547394,21.6904497 L44.256,7.59197784 Z M68.4404364,20.6665383 L68.2829116,20.6665383 C67.9809875,21.0340981 67.616715,21.3491446 67.1900831,21.6116872 C66.7634513,21.8742299 66.2154016,22.0054993 65.5459178,22.0054993 C65.0470867,22.0054993 64.5777987,21.923456 64.1380397,21.7593668 C63.6982807,21.5952776 63.3143177,21.3688379 62.9861394,21.080041 C62.657961,20.791244 62.4019857,20.4433802 62.2182059,20.036439 C62.034426,19.6294978 61.9425374,19.183182 61.9425374,18.697478 C61.9425374,18.1986469 62.0409894,17.7490493 62.2378965,17.3486717 C62.4348035,16.9482941 62.7104692,16.603712 63.0649018,16.314915 C63.4193344,16.0261181 63.8361147,15.8062419 64.3152551,15.6552798 C64.7943955,15.5043178 65.3161913,15.4288379 65.880658,15.4288379 C66.5107605,15.4288379 67.0292745,15.4780639 67.4362157,15.5765174 C67.8431568,15.6749709 68.1778938,15.7767047 68.4404364,15.8817217 L68.4404364,15.5863627 C68.4404364,15.0744045 68.2369689,14.6510607 67.8300277,14.3163188 C67.4230866,13.9815769 66.9176995,13.8142084 66.3138513,13.8142084 C65.4212062,13.8142084 64.6664073,14.1883261 64.0494319,14.9365728 L62.1788247,13.6566836 C63.2027411,12.3702244 64.60076,11.7270045 66.3729231,11.7270045 C67.8694164,11.7270045 69.01146,12.0781501 69.7990881,12.7804518 C70.5867161,13.4827534 70.9805242,14.5230632 70.9805242,15.9014123 L70.9805242,21.6904497 L68.4404364,21.6904497 L68.4404364,20.6665383 Z M68.4404364,17.7720196 C68.1385123,17.6276212 67.8267476,17.5127605 67.5051328,17.4274341 C67.183518,17.3421077 66.8323724,17.2994452 66.4516855,17.2994452 C65.8347102,17.2994452 65.3588587,17.4339963 65.0241168,17.7031025 C64.6893749,17.9722088 64.5220064,18.303664 64.5220064,18.697478 C64.5220064,19.091292 64.6828114,19.4063385 65.0044262,19.6426269 C65.326041,19.8789154 65.696877,19.9970578 66.1169453,19.9970578 C66.4582508,19.9970578 66.7732973,19.9347048 67.0620942,19.8099971 C67.3508912,19.6852893 67.5970213,19.5212026 67.8004918,19.317732 C68.0039624,19.1142614 68.1614857,18.8779765 68.2730663,18.6088703 C68.384647,18.339764 68.4404364,18.0608166 68.4404364,17.7720196 Z M79.6093842,14.2474017 L75.9666227,14.2474017 L75.9666227,21.6904497 L73.3871536,21.6904497 L73.3871536,14.2474017 L71.6543806,14.2474017 L71.6543806,12.0420541 L73.3871536,12.0420541 L73.3871536,11.0969052 C73.3871536,10.5061841 73.4757605,9.98438838 73.6529768,9.53150225 C73.8301931,9.07861611 74.0828867,8.69793492 74.411065,8.38944727 C74.7392434,8.08095961 75.126488,7.84467473 75.5728106,7.68058555 C76.0191332,7.51649637 76.5113933,7.43445302 77.0496058,7.43445302 C77.3121485,7.43445302 77.5221795,7.44757995 77.6797051,7.47383422 C77.8372307,7.50008849 77.9881905,7.5394693 78.132589,7.59197784 L77.9750642,10.013922 C77.8831742,9.97454062 77.7781587,9.94172327 77.6600145,9.91546901 C77.5418703,9.88921474 77.3909105,9.8760878 77.2071307,9.8760878 C76.8264438,9.8760878 76.5245242,10.0007937 76.3013629,10.2502093 C76.0782016,10.4996248 75.9666227,10.8409252 75.9666227,11.2741206 L75.9666227,12.0420541 L79.6093842,12.0420541 L79.6093842,9.08846368 L82.1888532,9.08846368 L82.1888532,12.0420541 L84.5517256,12.0420541 L84.5517256,14.2474017 L82.1888532,14.2474017 L82.1888532,17.9886163 C82.1888532,18.2117776 82.2118254,18.4185268 82.2577703,18.6088703 C82.3037153,18.7992137 82.3923221,18.9600187 82.5235935,19.0912901 C82.7073734,19.3013242 82.9699121,19.4063397 83.3112176,19.4063397 C83.5343789,19.4063397 83.7115926,19.3833676 83.8428639,19.3374226 C83.9741352,19.2914776 84.0988411,19.2291247 84.2169854,19.1503619 L84.9455377,21.4147812 C84.6436136,21.5591797 84.3187219,21.6674769 83.9708528,21.7396762 C83.6229838,21.8118754 83.2390208,21.8479745 82.8189525,21.8479745 C82.3332486,21.8479745 81.8967779,21.7724946 81.5095274,21.6215325 C81.122277,21.4705705 80.7973853,21.2638212 80.5348426,21.0012786 C79.9178673,20.4105575 79.6093842,19.5704335 79.6093842,18.4808814 L79.6093842,14.2474017 Z M88.8683435,10.112375 L88.8683435,13.3810152 L94.5195466,13.3810152 L94.5195466,15.9014123 L88.8683435,15.9014123 L88.8683435,19.1700525 L95.1496459,19.1700525 L95.1496459,21.6904497 L86.2101121,21.6904497 L86.2101121,7.59197784 L95.1496459,7.59197784 L95.1496459,10.112375 L88.8683435,10.112375 Z M98.9543081,13.3022527 L99.111833,13.3022527 C99.4137571,12.8165488 99.8206921,12.4325858 100.33265,12.1503525 C100.844609,11.8681191 101.428757,11.7270045 102.085114,11.7270045 C102.688962,11.7270045 103.220603,11.8254565 103.680053,12.0223635 C104.139503,12.2192706 104.516902,12.498218 104.812263,12.8592142 C105.107623,13.2202104 105.330781,13.6533993 105.481743,14.158794 C105.632705,14.6641886 105.708185,15.2253652 105.708185,15.8423405 L105.708185,21.6904497 L103.128716,21.6904497 L103.128716,16.1573902 C103.128716,15.4616521 102.974474,14.9464198 102.665987,14.6116778 C102.357499,14.2769359 101.907902,14.1095675 101.317181,14.1095675 C100.962748,14.1095675 100.650983,14.1850474 100.381877,14.3360094 C100.112771,14.4869714 99.8830492,14.690439 99.6927058,14.9464181 C99.5023623,15.2023972 99.357966,15.5043168 99.2595125,15.8521858 C99.161059,16.2000549 99.111833,16.5708909 99.111833,16.9647049 L99.111833,21.6904497 L96.532364,21.6904497 L96.532364,12.0420541 L98.9543081,12.0420541 L98.9543081,13.3022527 Z M111.639432,26.2586696 C110.956821,26.2586696 110.349701,26.1700628 109.818052,25.9928464 C109.286403,25.8156301 108.823678,25.5859087 108.429864,25.3036753 C108.03605,25.0214419 107.707877,24.7096772 107.445334,24.3683717 C107.182791,24.0270662 106.992451,23.6857658 106.874306,23.3444603 L109.335632,22.3599302 C109.519412,22.8718884 109.821331,23.2689783 110.2414,23.5512117 C110.661468,23.833445 111.127474,23.9745596 111.639432,23.9745596 C112.453315,23.9745596 113.096535,23.7218661 113.569111,23.2164714 C114.041688,22.7110767 114.277973,22.0055038 114.277973,21.0997316 L114.277973,20.4302511 L114.120448,20.4302511 C113.818524,20.8503194 113.421434,21.1817745 112.929167,21.4246265 C112.436899,21.6674785 111.856032,21.7889027 111.186548,21.7889027 C110.608955,21.7889027 110.047778,21.6707602 109.503002,21.4344718 C108.958226,21.1981834 108.475811,20.8601648 108.055743,20.4204058 C107.635674,19.9806468 107.294374,19.4522875 107.031831,18.8353122 C106.769289,18.2183369 106.638019,17.5291727 106.638019,16.7677989 C106.638019,16.0064251 106.769289,15.3139791 107.031831,14.6904403 C107.294374,14.0669014 107.635674,13.5352604 108.055743,13.0955014 C108.475811,12.6557424 108.958226,12.3177238 109.503002,12.0814353 C110.047778,11.8451469 110.608955,11.7270045 111.186548,11.7270045 C111.856032,11.7270045 112.436899,11.8484287 112.929167,12.0912806 C113.421434,12.3341326 113.818524,12.6655878 114.120448,13.0856561 L114.277973,13.0856561 L114.277973,12.0420541 L116.739299,12.0420541 L116.739299,21.0012786 C116.739299,21.8151609 116.614593,22.5469876 116.365177,23.1967808 C116.115762,23.8465739 115.767898,24.3979053 115.321575,24.8507915 C114.875253,25.3036776 114.34033,25.6515414 113.716791,25.8943934 C113.093252,26.1372454 112.400806,26.2586696 111.639432,26.2586696 Z M111.737885,19.4654115 C112.052937,19.4654115 112.364701,19.4063403 112.673189,19.2881961 C112.981677,19.1700519 113.254061,18.99612 113.490349,18.7663951 C113.726637,18.5366702 113.916978,18.2544411 114.061377,17.9196992 C114.205775,17.5849572 114.277973,17.2009943 114.277973,16.7677989 C114.277973,16.3346035 114.205775,15.9473588 114.061377,15.6060533 C113.916978,15.2647478 113.726637,14.9792369 113.490349,14.7495121 C113.254061,14.5197872 112.981677,14.3458553 112.673189,14.2277111 C112.364701,14.1095669 112.052937,14.0504957 111.737885,14.0504957 C111.422834,14.0504957 111.114351,14.1095669 110.812427,14.2277111 C110.510503,14.3458553 110.241401,14.523069 110.005112,14.7593574 C109.768824,14.9956458 109.578483,15.2811567 109.434085,15.6158986 C109.289686,15.9506405 109.217488,16.3346035 109.217488,16.7677989 C109.217488,17.2009943 109.289686,17.5849572 109.434085,17.9196992 C109.578483,18.2544411 109.768824,18.5366702 110.005112,18.7663951 C110.241401,18.99612 110.510503,19.1700519 110.812427,19.2881961 C111.114351,19.4063403 111.422834,19.4654115 111.737885,19.4654115 Z M119.835099,10.6440213 C119.611938,10.6440213 119.398625,10.6013588 119.195154,10.5160324 C118.991684,10.430706 118.81447,10.3125636 118.663508,10.1616015 C118.512546,10.0106395 118.394404,9.83670758 118.309077,9.63980056 C118.223751,9.44289355 118.181088,9.22629908 118.181088,8.99001066 C118.181088,8.75372224 118.223751,8.53712777 118.309077,8.34022076 C118.394404,8.14331374 118.512546,7.96938182 118.663508,7.81841978 C118.81447,7.66745773 118.991684,7.54931529 119.195154,7.46398892 C119.398625,7.37866255 119.611938,7.336 119.835099,7.336 C120.294549,7.336 120.688357,7.49680498 121.016535,7.81841978 C121.344714,8.14003457 121.5088,8.53056096 121.5088,8.99001066 C121.5088,9.44946036 121.344714,9.83998675 121.016535,10.1616015 C120.688357,10.4832163 120.294549,10.6440213 119.835099,10.6440213 Z M118.55521,21.6904497 L118.55521,12.0420541 L121.134679,12.0420541 L121.134679,21.6904497 L118.55521,21.6904497 Z M125.372534,13.3022527 L125.530059,13.3022527 C125.831983,12.8165488 126.238918,12.4325858 126.750877,12.1503525 C127.262835,11.8681191 127.846984,11.7270045 128.50334,11.7270045 C129.107188,11.7270045 129.638829,11.8254565 130.098279,12.0223635 C130.557729,12.2192706 130.935128,12.498218 131.230489,12.8592142 C131.525849,13.2202104 131.749007,13.6533993 131.899969,14.158794 C132.050931,14.6641886 132.126411,15.2253652 132.126411,15.8423405 L132.126411,21.6904497 L129.546942,21.6904497 L129.546942,16.1573902 C129.546942,15.4616521 129.392701,14.9464198 129.084213,14.6116778 C128.775725,14.2769359 128.326128,14.1095675 127.735407,14.1095675 C127.380974,14.1095675 127.069209,14.1850474 126.800103,14.3360094 C126.530997,14.4869714 126.301275,14.690439 126.110932,14.9464181 C125.920589,15.2023972 125.776192,15.5043168 125.677739,15.8521858 C125.579285,16.2000549 125.530059,16.5708909 125.530059,16.9647049 L125.530059,21.6904497 L122.95059,21.6904497 L122.95059,12.0420541 L125.372534,12.0420541 L125.372534,13.3022527 Z M142.842475,19.3669585 C142.396153,20.1545866 141.795595,20.791243 141.040785,21.276947 C140.285975,21.762651 139.363807,22.0054993 138.274255,22.0054993 C137.539136,22.0054993 136.859817,21.8775117 136.236278,21.6215325 C135.612739,21.3655534 135.071253,21.0078444 134.611803,20.5483947 C134.152353,20.088945 133.794644,19.5474588 133.538665,18.9239199 C133.282686,18.300381 133.154698,17.6144986 133.154698,16.8662519 C133.154698,16.1705138 133.279404,15.5108852 133.52882,14.8873463 C133.778235,14.2638074 134.126099,13.7190395 134.572422,13.2530262 C135.018744,12.787013 135.547104,12.416177 136.157515,12.1405072 C136.767927,11.8648373 137.440683,11.7270045 138.175802,11.7270045 C138.950303,11.7270045 139.639467,11.8549921 140.243316,12.1109713 C140.847164,12.3669504 141.352551,12.7213777 141.759492,13.1742638 C142.166433,13.62715 142.474916,14.1620727 142.68495,14.779048 C142.894985,15.3960233 143,16.0654971 143,16.7874895 L143,17.0237767 C142.986873,17.1025395 142.980309,17.1747377 142.980309,17.2403734 C142.967182,17.306009 142.960619,17.3782072 142.960619,17.45697 L135.694786,17.45697 C135.747295,17.850784 135.855592,18.1888027 136.019681,18.4710361 C136.18377,18.7532694 136.387238,18.9895543 136.63009,19.1798978 C136.872942,19.3702412 137.138762,19.5080741 137.427559,19.5934004 C137.716356,19.6787268 138.011712,19.7213894 138.313636,19.7213894 C138.904358,19.7213894 139.393336,19.5868382 139.780586,19.317732 C140.167837,19.0486257 140.473038,18.7106071 140.696199,18.3036659 L142.842475,19.3669585 Z M140.499293,15.6257439 C140.486166,15.4550912 140.430377,15.2647506 140.331923,15.0547164 C140.23347,14.8446823 140.089073,14.6477782 139.89873,14.4639983 C139.708387,14.2802184 139.472102,14.1292587 139.189868,14.0111145 C138.907635,13.8929702 138.569616,13.833899 138.175802,13.833899 C137.624463,13.833899 137.138766,13.9914223 136.718698,14.3064735 C136.298629,14.6215247 136.003273,15.0612771 135.83262,15.6257439 L140.499293,15.6257439 Z" id="WaftEngine"></path>
                        <path d="M30.6460116,15.9996799 C30.6460116,15.5324904 31.2504164,15.1534891 32,15.1456466 C31.9859143,14.8766539 31.9652126,14.6092616 31.9378948,14.3434699 C31.2124811,14.4377401 30.5773438,14.1603713 30.506275,13.7071063 C30.4352063,13.2538412 30.9526958,12.7930538 31.6725074,12.6589309 C31.6170182,12.3968737 31.5550198,12.1371639 31.486512,11.8798015 C30.7982333,12.0697823 30.1486902,11.8935659 30.0094338,11.4644686 C29.8701774,11.0353713 30.2922684,10.5104033 30.9619796,10.2597631 C30.8659407,10.0110435 30.7645663,9.76531157 30.6578564,9.52256722 C30.0187176,9.80009603 29.3694946,9.72231114 29.1682932,9.32730474 C28.9670917,8.93229834 29.2865811,8.36011524 29.8877846,8.00640205 C29.7549307,7.776035 29.6162079,7.54961588 29.471616,7.32714469 C28.8925015,7.68197823 28.2576844,7.70006402 28.0022209,7.3481114 C27.7467574,6.99615877 27.9602839,6.39628681 28.4785738,5.95486556 C28.3115729,5.74775928 28.1396632,5.54502774 27.962845,5.34667093 C27.4506375,5.7693662 26.8436717,5.87740077 26.5413092,5.57522407 C26.2389468,5.27304738 26.348271,4.65941101 26.7754841,4.14660691 C26.5786043,3.96798976 26.3773495,3.79417414 26.1717195,3.62516005 C25.7349026,4.10787452 25.1623508,4.30105634 24.8212526,4.05297695 C24.4801545,3.80489757 24.4867171,3.19382202 24.8164507,2.62612036 C24.5946008,2.47983355 24.3688561,2.33888178 24.1392164,2.20326504 C23.7832322,2.73639565 23.2556585,3.00784251 22.883828,2.81882202 C22.5089561,2.62756082 22.4206003,2.03265045 22.6499732,1.42637644 C22.4082754,1.3161545 22.1632695,1.21164106 21.9149556,1.11283611 C21.6455665,1.68677977 21.1712944,2.03072983 20.7773748,1.90284891 C20.380254,1.77368758 20.1995408,1.20726633 20.3256719,0.577464789 C20.0695682,0.505975245 19.8109034,0.44078105 19.5496776,0.381882202 C19.3715255,0.983994878 18.9596787,1.39148528 18.5537543,1.32746479 C18.1435081,1.26248399 17.87652,0.736715749 17.8992492,0.099871959 C17.6354624,0.068822023 17.369648,0.0442808365 17.1018062,0.0262483995 C17.0177722,0.644206146 16.6761939,1.10691421 16.2672282,1.10691421 C15.8525003,1.10691421 15.5070804,0.631081946 15.4292889,0 C15.1610202,0.00960307298 14.8942455,0.0256081946 14.6289647,0.0480153649 C14.6427303,0.672215109 14.377823,1.18229834 13.9739795,1.24663892 C13.5626129,1.31161972 13.1454839,0.89212548 12.9710133,0.277368758 C12.7081868,0.32762484 12.4475479,0.384496372 12.1890966,0.447983355 C12.3038631,1.06546095 12.1221895,1.61635723 11.7311511,1.74327785 C11.3325897,1.87275928 10.8515949,1.51824584 10.5841266,0.931177977 C10.3328248,1.02176697 10.0844042,1.11827785 9.83886474,1.22071063 C10.0549523,1.81738156 9.96275492,2.39660691 9.59380549,2.5849872 C9.21733302,2.77704866 8.68143598,2.49519846 8.32561187,1.94926376 C8.0915971,2.07730474 7.86131717,2.21100085 7.63477208,2.35035211 C7.94945953,2.91053137 7.95250076,3.50464149 7.61444385,3.7503201 C7.26934408,4.00080026 6.68798864,3.80041613 6.24925095,3.30601793 C6.03860564,3.46862996 5.83185523,3.63615023 5.62899974,3.80857875 C6.03892576,4.31578105 6.14008674,4.91293214 5.84188596,5.2109475 C5.53584202,5.51664533 4.91783172,5.40300896 4.40306324,4.96862996 C4.21994908,5.16069142 4.04169022,5.35782117 3.86828666,5.56001921 C4.36784898,5.99919974 4.57113131,6.58434699 4.31934934,6.93101793 C4.06116477,7.28617157 3.41690385,7.26488476 2.83314742,6.90028809 C2.68204623,7.11849125 2.53638724,7.34048229 2.39617045,7.5662612 C2.97736583,7.9212548 3.28260946,8.47935339 3.0844492,8.8681178 C2.88116687,9.26648528 2.22153972,9.34138924 1.57663854,9.05473752 C1.46117844,9.29364063 1.35180081,9.53574477 1.24850564,9.78104994 C1.89916916,10.0361716 2.3049335,10.5516965 2.16807807,10.9742318 C2.02738109,11.40637 1.36775394,11.5824264 0.672432335,11.3839629 C0.595921348,11.6387644 0.52554618,11.8962335 0.461306829,12.15637 C1.16287096,12.2984955 1.66307354,12.7514405 1.59280509,13.1976633 C1.51997559,13.6550896 0.8755546,13.9338988 0.14261776,13.8319462 C0.106549819,14.0963508 0.0772046012,14.3627828 0.0545821058,14.631242 C0.787198816,14.6502881 1.37175556,15.0243278 1.37207569,15.4839949 C1.37207569,15.9551857 0.758067017,16.3369078 0,16.3385083 C0.00554891398,16.6091016 0.0178739056,16.8780943 0.0369749749,17.1454866 C0.780316028,17.0334507 1.43834253,17.3140205 1.51181228,17.7765685 C1.58560217,18.2429577 1.03673988,18.7171895 0.28587578,18.8361076 C0.295319604,19.1097418 0.350168485,19.3764938 0.411846798,19.6410051 C1.15838915,19.3974072 1.86267438,19.5709027 2.00897363,20.0200064 C2.15527289,20.4691101 1.68644301,21.0230474 0.963910384,21.2580026 C0.978796413,21.5402796 1.07611583,21.7973752 1.17983783,22.0512164 C1.91293474,21.675096 2.63546736,21.7363956 2.85043443,22.1570102 C3.06540149,22.5776248 2.68924915,23.1984635 2.01169474,23.5433739 C1.97712073,23.5611396 1.94238667,23.5769846 1.90733247,23.5925096 C2.03922589,23.8369612 2.17720177,24.0776782 2.32126011,24.3146607 C2.34687048,24.2943342 2.37248085,24.2736876 2.39953181,24.2540013 C3.01466094,23.8068182 3.73815395,23.7543214 4.01618656,24.1362036 C4.29421916,24.5180858 4.01986805,25.1899808 3.40489898,25.6366837 C3.36488278,25.665653 3.32486657,25.6928617 3.28340978,25.71879 C3.45350534,25.9410478 3.62925652,26.1588242 3.81066332,26.3721191 C3.83899479,26.3401088 3.86812659,26.3080986 3.8990191,26.278009 C4.43667685,25.7400768 5.14304293,25.574904 5.47693816,25.9087708 C5.81083339,26.2426376 5.64548642,26.9491037 5.10878906,27.4865557 C5.06637188,27.5288092 5.02219399,27.5680218 4.97849629,27.6057939 C5.18316585,27.8007362 5.39333097,27.9901302 5.60899164,28.1739757 C5.63652279,28.1298015 5.66565459,28.0856274 5.69718736,28.0424136 C6.14392829,27.4271767 6.81540024,27.1534891 7.19779511,27.4308579 C7.58018998,27.7082266 7.52704845,28.4319782 7.08030752,29.0473752 C7.03965106,29.103233 6.99643356,29.1550896 6.95225566,29.2053457 C7.18776438,29.3673175 7.42786162,29.5231007 7.67254738,29.6726953 C7.69527659,29.6165173 7.72056683,29.5606594 7.74841811,29.5044814 C8.09367794,28.8268246 8.71424927,28.4515045 9.1350597,28.665653 C9.55587013,28.8798015 9.61701489,29.603073 9.27175506,30.2802497 C9.23721986,30.3471442 9.19934341,30.4122605 9.1582691,30.4753521 C9.41821438,30.5986983 9.68210792,30.7151088 9.94994973,30.8245839 C9.96483576,30.7591229 9.98196269,30.6931818 10.0030913,30.6272407 C10.2379064,29.9041293 10.7922108,29.4361396 11.2415128,29.5819462 C11.6908148,29.7277529 11.8638449,30.4321383 11.6290298,31.1552497 C11.6038831,31.2314337 11.5747103,31.3062295 11.5416344,31.3793214 C11.8190801,31.4602006 12.0996737,31.5336108 12.3834153,31.5995519 C12.3872508,31.5271913 12.3947837,31.4550741 12.4059844,31.3834827 C12.5244324,30.6325224 12.9982243,30.0838668 13.4651334,30.1573303 C13.9320425,30.2307939 14.2129562,30.8998079 14.093868,31.6507682 C14.0808585,31.7317102 14.0633307,31.811861 14.0413668,31.8908451 C14.3282029,31.9260563 14.6173867,31.9533717 14.9089181,31.9727913 C14.9018753,31.9014085 14.8973934,31.8287452 14.8973934,31.7538412 C14.8973934,30.9934379 15.2793081,30.3774008 15.7516594,30.3774008 C16.2240107,30.3774008 16.6064056,30.993758 16.6064056,31.7538412 C16.6062716,31.8361008 16.6014619,31.9182862 16.5919998,32 C16.8841714,31.9893299 17.1739955,31.9711374 17.4614719,31.9454225 C17.4435446,31.8758003 17.4275382,31.8048976 17.4158534,31.731114 C17.2964451,30.9801536 17.5781592,30.3117798 18.0445881,30.2376761 C18.511017,30.1635723 18.985289,30.7127081 19.1040571,31.4635083 C19.1167703,31.5442281 19.124787,31.6256176 19.1280669,31.7072663 C19.4141561,31.6508216 19.6973107,31.5868011 19.9775309,31.5152049 C19.9483052,31.4493749 19.9223956,31.3821225 19.8998995,31.3137004 C19.6646042,30.590749 19.8381144,29.8863636 20.2872563,29.7403969 C20.7363982,29.5944302 21.2905427,30.06258 21.5255178,30.7852113 C21.5496228,30.8600313 21.5696076,30.9361164 21.5853821,31.0131242 C21.8566386,30.9122919 22.1244804,30.804204 22.3889075,30.6888604 C22.3538533,30.6328425 22.3194394,30.574904 22.2880667,30.5128041 C21.9426468,29.8353073 22.0039516,29.1126761 22.424602,28.8978873 C22.8452523,28.6830986 23.4659837,29.059219 23.8109234,29.7363956 C23.844377,29.8021767 23.8731886,29.8684379 23.8989591,29.9345391 C24.1485001,29.7927337 24.39516,29.6454866 24.6352573,29.4911972 C24.5962015,29.4455826 24.557946,29.3986876 24.5216113,29.3487516 C24.0745502,28.7338348 24.0217288,28.0104033 24.4034834,27.7322343 C24.785238,27.4540653 25.4576704,27.7285531 25.9044113,28.3434699 C25.9425067,28.3962868 25.9767606,28.4497439 26.0090937,28.5035211 C26.2306234,28.3262911 26.4471911,28.1434059 26.6587968,27.9548656 C26.6207014,27.9210948 26.582766,27.8863636 26.545631,27.8493918 C26.0078132,27.3119398 25.8427863,26.6057939 26.1762014,26.2716069 C26.5096164,25.93742 27.2166227,26.103233 27.7542805,26.640685 C27.7936564,26.6797375 27.8301512,26.7207106 27.8653655,26.7612036 C28.0541353,26.5536705 28.2371961,26.3410158 28.4145479,26.1232394 C28.3794937,26.1005122 28.3447596,26.0771447 28.3100256,26.0521767 C27.6948964,25.6056338 27.4216658,24.9338988 27.6985779,24.5516965 C27.9754901,24.1694942 28.6999435,24.2224712 29.3152327,24.6693342 C29.3514073,24.6955826 29.3861414,24.7229513 29.4199151,24.7504802 C29.5716565,24.5180858 29.717689,24.2816901 29.8580125,24.0412932 C29.0948234,23.65637 28.7196315,23.0356914 28.9334781,22.6147567 C29.1473247,22.193822 29.8709777,22.1331626 30.5483721,22.4779129 C30.577824,22.4939181 30.6064756,22.5099232 30.6354474,22.5259283 C30.7472793,22.2752881 30.8528687,22.0211268 30.9522156,21.7634443 C30.1718996,21.512644 29.7043503,20.9582266 29.8498492,20.5091229 C29.9953481,20.0600192 30.7002736,19.8868438 31.4232864,20.1216389 C31.5503779,19.8800149 31.6139236,19.6150768 31.6709067,19.3474712 C30.9005147,19.2261524 30.3518125,18.7528809 30.4252822,18.2855314 C30.498752,17.8181818 31.167823,17.5377721 31.918527,17.6566901 C31.9647857,17.3930858 31.9857009,17.123933 32,16.8529129 C31.2504164,16.8458707 30.6460116,16.4667093 30.6460116,15.9996799 Z M4.8182714,22.4551857 C3.25075656,19.7403969 2.56135735,16.6494878 3.98481385,15.8276248 C5.40827035,15.0057618 8.35058199,16.7959347 9.91825689,19.5107234 C11.4859318,22.2255122 11.565324,25.6685339 10.1421876,26.490557 C8.71713044,27.31242 6.38578624,25.1699744 4.8182714,22.4551857 Z M11.0503769,14.6299058 C10.5832322,14.7551015 10.0854821,14.689604 9.66663499,14.4478233 L5.56897544,12.0814661 C5.00478171,11.7557643 4.65721983,11.1538353 4.65721299,10.5024198 C4.65720615,9.85100441 5.0047554,9.24906808 5.56894228,8.92335447 C6.13312916,8.59764086 6.82824026,8.59763362 7.39243394,8.92333547 L11.4900935,11.2893726 C12.3622972,11.7929146 12.6611317,12.9081104 12.1575638,13.7802497 C11.9157912,14.1990777 11.5175215,14.5047102 11.0503769,14.6299058 Z M9.84398681,5.68165813 C9.84398681,4.03793214 12.8656906,3.08882843 16.0007203,3.08882843 C19.13575,3.08882843 22.1576138,4.03729193 22.1576138,5.68165813 C22.1576138,7.32602433 19.13591,8.97871319 16.0007203,8.97871319 C12.8655305,8.97871319 9.84398681,7.32458387 9.84398681,5.68165813 Z M17.8238587,26.9927977 C17.8238587,27.9998246 17.0074327,28.8161812 16.0003201,28.8161812 C14.9932076,28.8161812 14.1767816,27.9998246 14.1767816,26.9927977 L14.1767816,22.2605634 C14.1767816,21.2535365 14.9932076,20.4371799 16.0003201,20.4371799 C17.0074327,20.4371799 17.8238587,21.2535365 17.8238587,22.2605634 L17.8238587,26.9927977 Z M16.0007203,19.1693342 C14.2505818,19.1688922 12.8320898,17.7500432 12.8322372,16.0000534 C12.8323845,14.2500636 14.2511153,12.8314535 16.0012539,12.8313061 C17.7513925,12.8311588 19.1703622,14.2495301 19.1708042,15.9995198 C19.1707158,17.7501234 17.7514727,19.1692458 16.0007203,19.1693342 Z M19.8441969,13.7810499 C19.6023315,13.3622434 19.5367757,12.8645115 19.6619537,12.3973703 C19.7871316,11.930229 20.0927873,11.5319522 20.5116672,11.2901729 L24.6106073,8.92413572 C25.174801,8.59840529 25.8699273,8.59838613 26.434139,8.92408544 C26.9983506,9.24978476 27.3459303,9.85172107 27.3459483,10.5031508 C27.3459662,11.1545805 26.9984196,11.756536 26.4342259,12.0822663 L22.3356059,14.4484635 C21.916725,14.6903666 21.4188878,14.7559495 20.9516422,14.630781 C20.4843966,14.5056124 20.0860282,14.1999486 19.8441969,13.7810499 Z M27.1828491,22.4550256 C25.6153342,25.1699744 23.2830296,27.31258 21.8595731,26.490557 C20.4361166,25.6685339 20.5150286,22.2258323 22.0836639,19.5107234 C23.6522992,16.7956146 26.5933303,15.0057618 28.0171069,15.8276248 C29.4408836,16.6494878 28.7503639,19.7402369 27.1828491,22.4550256 Z" id="Path_15" fill-rule="nonzero"></path>
                        <polygon id="Path-2" fill-rule="nonzero" points="15.238962 17.6089215 13 14.2504784 13.4160251 13.9731283 15.1770631 16.6146853 16.2080126 14.5527864 17.2080126 16.5527864 18.9844058 13 19.4316194 13.2236068 17.2080126 17.6708204 16.2080126 15.6708204"></polygon>
                    </g>
                </g>
            </g>
        </g>
    </g>
</svg>