<?xml version="1.0" encoding="utf-8"?>
<!-- Generator: Adobe Illustrator 17.0.0, SVG Export Plug-In . SVG Version: 6.00 Build 0)  -->
<!DOCTYPE svg PUBLIC "-//W3C//DTD SVG 1.1//EN" "http://www.w3.org/Graphics/SVG/1.1/DTD/svg11.dtd">
<svg version="1.1" xmlns="http://www.w3.org/2000/svg" xmlns:xlink="http://www.w3.org/1999/xlink" x="0px" y="0px"
	 width="289.03px" height="344.193px" viewBox="0 0 289.03 344.193" enable-background="new 0 0 289.03 344.193"
	 xml:space="preserve">
<g id="Background" display="none">
</g>
<g id="Layer_3">
	<path fill="#FFFFFF" stroke="#000000" stroke-miterlimit="10" d="M288.53,169.51c0,79.536-64.484,144.02-144.015,144.02
		C64.974,313.53,0.5,249.046,0.5,169.51S64.974,25.5,144.515,25.5C224.046,25.5,288.53,89.974,288.53,169.51z"/>
	<path fill="none" d="M21.171,233.446c55.105,69.892,159.436,79.346,233.263,21.138"/>
	<text transform="matrix(0.8135 0.6738 -0.6379 0.7701 36.7153 250.786)" font-family="'LucidaHandwriting-Italic'" font-size="23">A</text>
	
		<text transform="matrix(0.8838 0.5785 -0.5477 0.8367 51.9715 263.1603)" font-family="'LucidaHandwriting-Italic'" font-size="23">S</text>
	
		<text transform="matrix(0.9416 0.4787 -0.4532 0.8914 64.2738 271.2777)" font-family="'LucidaHandwriting-Italic'" font-size="23">K</text>
	<text transform="matrix(0.9804 0.3931 -0.3721 0.9282 81.188 279.5878)" font-family="'LucidaHandwriting-Italic'" font-size="23"> </text>
	<text transform="matrix(1.0092 0.312 -0.2954 0.9554 89.5161 283.0623)" font-family="'LucidaHandwriting-Italic'" font-size="23">T</text>
	<text transform="matrix(1.0396 0.187 -0.177 0.9842 106.0905 288.2577)" font-family="'LucidaHandwriting-Italic'" font-size="23">O</text>
	
		<text transform="matrix(1.0526 0.0887 -0.0839 0.9965 127.749 291.8013)" font-family="'LucidaHandwriting-Italic'" font-size="23"> </text>
	
		<text transform="matrix(1.0562 -0.0147 0.0139 0.9999 136.914 292.8787)" font-family="'LucidaHandwriting-Italic'" font-size="23">M</text>
	
		<text transform="matrix(1.0456 -0.1499 0.1419 0.9899 160.9714 292.3185)" font-family="'LucidaHandwriting-Italic'" font-size="23">A</text>
	<text transform="matrix(1.021 -0.2706 0.2562 0.9666 180.496 289.4736)" font-family="'LucidaHandwriting-Italic'" font-size="23">R</text>
	
		<text transform="matrix(0.9892 -0.3704 0.3507 0.9365 200.1947 284.0416)" font-family="'LucidaHandwriting-Italic'" font-size="23">I</text>
	
		<text transform="matrix(0.9476 -0.4667 0.4418 0.8971 213.5996 279.1397)" font-family="'LucidaHandwriting-Italic'" font-size="23">N</text>
	
		<text transform="matrix(0.8886 -0.5711 0.5407 0.8412 232.3557 269.7824)" font-family="'LucidaHandwriting-Italic'" font-size="23">A</text>
</g>
<g id="Objects">
	<g>
		<path fill-rule="evenodd" clip-rule="evenodd" fill="#5D524C" d="M73.133,101.168c-11.651-0.06-16.487,8.791-13.563,21.312
			C44.52,114.667,59.758,86.998,73.133,101.168z"/>
		<path fill-rule="evenodd" clip-rule="evenodd" fill="#5D524C" d="M230.077,121.836c1.37-10.767-1.913-20.928-13.56-20.667
			C229.722,88.348,244.214,114.196,230.077,121.836z"/>
		<path fill-rule="evenodd" clip-rule="evenodd" fill="#5D524C" d="M215.869,126.359c8.942-1.249,31.963,5.35,33.585,13.56
			c1.506,7.621-7.206,19.622-12.273,24.546c-10.564,10.27-29.405,17.932-45.854,18.083c10.409-2.497,22.942-6.523,32.94-14.853
			c5.912-4.927,16.223-16.702,14.853-25.191C237.626,133.237,223.693,131.015,215.869,126.359z"/>
		<path fill-rule="evenodd" clip-rule="evenodd" fill="#5D524C" d="M71.843,126.359c-6.659,5.18-20.305,7.04-21.961,15.499
			c-1.875,9.598,10.002,21.795,16.793,27.126c9.692,7.61,20.467,11.53,31.001,12.918c-12.918,1.226-26.093-3.799-37.46-11.624
			c-8.458-5.829-22.376-18.192-20.667-29.711C41.129,129.932,59.061,127.736,71.843,126.359z"/>
		<path fill-rule="evenodd" clip-rule="evenodd" fill="#5D524C" d="M50.526,170.278c-6.9,9.062,3.392,18.653,6.459,23.248
			C44.143,195.59,33.602,169.282,50.526,170.278z"/>
		<path fill-rule="evenodd" clip-rule="evenodd" fill="#5D524C" d="M237.83,169.629c18.053,1.215,6.719,25.595-5.814,24.542
			c-1.37-1.614,2.237-3.689,3.875-5.81C239.735,183.385,243.384,176.179,237.83,169.629z"/>
		<path fill-rule="evenodd" clip-rule="evenodd" fill="#5D524C" d="M142.239,39.166c-5.969,7.229-15.959,17.294-15.499,31.646
			c0.404,12.68,7.882,19.781,16.793,25.836c22.954-6.47,20.584-46.662,2.585-56.837c21.343,4.784,30.371,48.031,9.039,62.002
			c15.597,10.22,32.574,26.402,29.711,52.962c-1.773,16.453-12.507,26.021-23.897,34.23c-20.381-5.21-26.9-36.486-17.438-58.127
			c2.264,16.464,2.226,35.234,14.208,41.98c25.882-12.774,9.957-57.086-12.918-63.941c-27.772,10.334-33.533,48.024-18.728,76.859
			c3.958,7.708,7.595,13.77,12.918,20.022c1.064,1.256,4.293,2.117,3.226,4.52c-19.656-11.541-39.969-33.272-36.811-65.876
			c1.943-20.105,13.865-33.069,28.417-41.984C112.596,87.077,119.712,48.244,142.239,39.166z"/>
		<path fill-rule="evenodd" clip-rule="evenodd" fill="#5D524C" d="M83.467,80.501c12.303-5.195,24.512,2.418,31.646,8.394
			c-5.969-0.879-15.963-5.436-22.603-1.935c-14.212,7.493-3.675,43.926,3.875,48.438C83.376,128.668,72.71,99.309,83.467,80.501z"/>
		<path fill-rule="evenodd" clip-rule="evenodd" fill="#5D524C" d="M197.141,86.96c-7.421-2.177-16.6-0.849-21.962,2.584
			c3.373-6.964,17.676-13.272,29.711-9.688c11.941,18.823,0.97,47.375-12.273,56.837C200.778,126.763,209.496,101.055,197.141,86.96
			z"/>
		<path fill-rule="evenodd" clip-rule="evenodd" fill="#5D524C" d="M148.053,214.194c17.966,11.088,61.308,13.208,74.275-5.81
			c-11.379-23.712-60.017-19.256-73.63-0.645c12.48-26.534,75.309-30.79,88.483,0C224.252,234.887,168.792,233.284,148.053,214.194z
			"/>
		<path fill-rule="evenodd" clip-rule="evenodd" fill="#5D524C" d="M140.304,214.194c2.131,0.015-3.418,2.988-5.814,4.524
			c-22.003,14.125-70.276,14.804-82.024-10.979c5.059-13.458,18.072-18.959,36.17-19.377c-9.021,4.327-18.51,8.187-23.252,16.793
			C74.918,226.323,121.153,228.175,140.304,214.194z"/>
	</g>
</g>
</svg>
