<?xml version="1.0" encoding="UTF-8"?>
<svg width="27px" height="27px" viewBox="0 0 27 27" version="1.1" xmlns="http://www.w3.org/2000/svg" xmlns:xlink="http://www.w3.org/1999/xlink">
    <!-- Generator: Sketch 50.2 (55047) - http://www.bohemiancoding.com/sketch -->
    <title>Combined Shape</title>
    <desc>Created with Sketch.</desc>
    <defs></defs>
    <g id="Page-1" stroke="none" stroke-width="1" fill="none" fill-rule="evenodd">
        <g id="logo" fill="#2A3C85">
            <path d="M27,15.3576157 L24.8389425,15.8274007 C24.506958,15.8996932 24.2421191,16.1495589 24.150876,16.4766303 C23.9134101,17.3284665 23.5718333,18.1522278 23.1357381,18.9249866 C22.9686931,19.2209417 22.9789872,19.5849782 23.1628772,19.8708733 L24.3595653,21.7322323 L21.7324662,24.3595653 L19.8708733,23.1628772 C19.5849782,22.9789872 19.2209417,22.9686931 18.9252205,23.1357381 C18.1522278,23.5718333 17.3284665,23.9134101 16.4766303,24.150876 C16.1495589,24.2421191 15.8996932,24.506958 15.8274007,24.8389425 L15.3576157,27 L11.6423843,27 L11.1725993,24.8389425 C11.1003068,24.506958 10.8504411,24.2421191 10.5233697,24.150876 C9.67153355,23.9134101 8.84777223,23.5718333 8.07501344,23.1357381 C7.7790583,22.9686931 7.41502177,22.9792212 7.12912673,23.1628772 L5.2677677,24.3595653 L2.64066861,21.7322323 L3.83712283,19.8708733 C4.02101278,19.5849782 4.03154082,19.2209417 3.86449581,18.9249866 C3.42840063,18.1522278 3.08682394,17.3284665 2.84912399,16.4766303 C2.75788087,16.1495589 2.4932759,15.8996932 2.16129147,15.8274007 L0,15.3576157 L0,11.6423843 L2.16105753,11.1725993 C2.49304195,11.1003068 2.75788087,10.8504411 2.84912399,10.5233697 C3.08658993,9.67153355 3.42816669,8.84777223 3.86426186,8.07501344 C4.03130687,7.7790583 4.02101278,7.41502177 3.83712283,7.12912673 L2.64043467,5.2677677 L5.26753376,2.64043467 L7.12912673,3.83712283 C7.41502177,4.02101278 7.7790583,4.03130687 8.0747795,3.86426186 C8.84777223,3.42816669 9.67153355,3.08658993 10.5233697,2.84912399 C10.8504411,2.75788087 11.1003068,2.49304195 11.1725993,2.16105753 L11.6423843,0 L15.3576157,0 L15.8274007,2.16105753 C15.8996932,2.49304195 16.1495589,2.75788087 16.4766303,2.84912399 C17.3284665,3.08658993 18.1522278,3.42816669 18.9249866,3.86426186 C19.2209417,4.03130687 19.5849782,4.02077884 19.8708733,3.83712283 L21.7322323,2.64043467 L24.3593314,5.2677677 L23.1628772,7.12912673 C22.9789872,7.41502177 22.9684592,7.7790583 23.1355042,8.07501344 C23.5718333,8.84777223 23.9131761,9.67153355 24.150876,10.5233697 C24.2421191,10.8504411 24.5067241,11.1003068 24.8387085,11.1725993 L27,11.6423843 L27,15.3576157 Z M7.30018094,7.30018094 L10.5929915,19.1967721 L16.2226243,11.44847 L7.30018094,7.30018094 Z M11.0178657,20.683846 L18.4532351,17.5953079 L17.5140306,11.7614026 L11.0178657,20.683846 Z M18.7506454,11.3152805 L19.4369872,17.2635761 L21.7247932,13.9763601 L18.7506454,11.3152805 Z" id="Combined-Shape"></path>
        </g>
    </g>
</svg>