<svg xmlns="http://www.w3.org/2000/svg" width="288" height="52" viewBox="0 0 288 52">
  <g fill="none" fill-rule="evenodd">
    <path fill="#FF9500" d="M139.391553,12.4194849 C139.590239,4.77066719 143.797175,0.414933333 151.346672,0.414933333 C159.082896,0.414933333 163.309167,4.9888 163.309167,12.9930667 L163.309167,39.0069333 C163.309167,47.0112 159.082896,51.5850667 151.346672,51.5850667 C145.088991,51.5850667 141.127829,48.5924426 139.842291,43.2123631 C143.646075,46.7733301 148.753799,48.9526906 154.369546,48.9526906 C149.613293,47.0779345 145.676469,43.6855188 143.111299,39.3646525 L144.465139,37.5434609 L147.137191,41.1144248 L148.241639,36.7935585 L152.107208,39.0789754 L151.465916,34.6152705 L155.883709,35.2758989 L153.56793,31.401403 L157.932282,30.2944042 L154.369546,27.6161813 L157.932282,24.9379584 L153.585744,23.8131047 L155.865895,19.9564637 L151.412475,20.617092 L152.071581,16.1533872 L148.206012,18.4745137 L147.101564,14.1179377 L144.429512,17.6889016 L143.057858,15.9034197 C145.551774,11.6718275 149.399529,8.2258473 154.316105,6.29752679 C148.502432,6.29752679 143.233224,8.63321684 139.391553,12.4194849 Z M174.788149,8.13333333 L174.788149,23.2128 L184.959852,23.2128 L184.959852,30.3594667 L174.788149,30.3594667 L174.788149,51.0133333 L166.908661,51.0133333 L166.908661,0.986666667 L187.753488,0.986666667 L187.753488,8.13333333 L174.788149,8.13333333 Z M197.943099,8.13333333 L197.943099,23.2128 L208.114802,23.2128 L208.114802,30.3594667 L197.943099,30.3594667 L197.943099,51.0133333 L190.063611,51.0133333 L190.063611,0.986666667 L210.908439,0.986666667 L210.908439,8.13333333 L197.943099,8.13333333 Z M221.098049,8.13333333 L221.098049,22.0693333 L231.914438,22.0693333 L231.914438,29.216 L221.098049,29.216 L221.098049,43.8666667 L234.708074,43.8666667 L234.708074,51.0133333 L213.218561,51.0133333 L213.218561,0.986666667 L234.708074,0.986666667 L234.708074,8.13333333 L221.098049,8.13333333 Z M262.590717,51.0133333 L254.567966,51.0133333 C254.138176,49.7269333 253.851649,48.9408 253.851649,44.8672 L253.851649,37.0058667 C253.851649,32.3605333 252.275751,30.6453333 248.694166,30.6453333 L245.972161,30.6453333 L245.972161,51.0133333 L238.092673,51.0133333 L238.092673,0.986666667 L249.983536,0.986666667 C258.149551,0.986666667 261.659505,4.7744 261.659505,12.4928 L261.659505,16.4234667 C261.659505,21.5690667 260.011976,24.928 256.502022,26.5717333 C260.441766,28.2154667 261.731137,32.0032 261.731137,37.2202667 L261.731137,44.9386667 C261.731137,47.3685333 261.802769,49.1552 262.590717,51.0133333 Z M249.768641,8.13333333 L245.972161,8.13333333 L245.972161,23.4986667 L249.052324,23.4986667 C251.989224,23.4986667 253.780017,22.2122667 253.780017,18.2101333 L253.780017,13.2789333 C253.780017,9.7056 252.562278,8.13333333 249.768641,8.13333333 Z M264.399418,12.9930667 C264.399418,4.9888 268.339162,0.414933333 276.003755,0.414933333 C283.668348,0.414933333 287.608092,4.9888 287.608092,12.9930667 L287.608092,14.5653333 L280.158394,14.5653333 L280.158394,12.4928 C280.158394,8.91946667 278.72576,7.5616 276.21865,7.5616 C273.71154,7.5616 272.278906,8.91946667 272.278906,12.4928 C272.278906,22.784 287.679724,24.7136 287.679724,39.0069333 C287.679724,47.0112 283.668348,51.5850667 275.932123,51.5850667 C268.195899,51.5850667 264.184523,47.0112 264.184523,39.0069333 L264.184523,35.9338667 L271.634221,35.9338667 L271.634221,39.5072 C271.634221,43.0805333 273.210118,44.3669333 275.717228,44.3669333 C278.224338,44.3669333 279.800236,43.0805333 279.800236,39.5072 C279.800236,29.216 264.399418,27.2864 264.399418,12.9930667 Z"/>
    <path fill="#FF3B30" d="M107.148877,26.7237144 L113.521621,29.3918143 L109.342688,34.8703341 L115.078489,34.1705148 L115.078489,43.8571429 L128.126305,43.8571429 L128.126305,51 L107.148877,51 L107.148877,26.7237144 Z M107.148877,26.7087307 L107.148877,1 L115.078489,1 L115.078489,19.2365198 L109.342688,18.5367005 L113.521621,24.0152203 L107.148877,26.7087307 Z M17.1838287,51 L7.30785781,14.7857143 L7.30785781,51 L0.171207329,51 L0.171207329,1 L10.1192656,1 L18.2651394,30.9285714 L18.2651394,1 L25.3297025,1 L25.3297025,51 L17.1838287,51 Z M37.458404,8.14285714 L37.458404,22.0714286 L48.3435981,22.0714286 L48.3435981,29.2142857 L37.458404,29.2142857 L37.458404,43.8571429 L51.1550059,43.8571429 L51.1550059,51 L29.5287923,51 L29.5287923,1 L51.1550059,1 L51.1550059,8.14285714 L37.458404,8.14285714 Z M66.2392899,1 C74.1689016,1 78.06162,5.35714286 78.06162,13.3571429 L78.06162,19.8571429 C78.06162,27.8571429 74.1689016,32.2142857 66.2392899,32.2142857 L62.4907462,32.2142857 L62.4907462,51 L54.5611346,51 L54.5611346,1 L66.2392899,1 Z M66.2392899,8.14285714 L62.4907462,8.14285714 L62.4907462,25.0714286 L66.2392899,25.0714286 C68.7623482,25.0714286 70.1320084,23.9285714 70.1320084,20.3571429 L70.1320084,12.8571429 C70.1320084,9.28571429 68.7623482,8.14285714 66.2392899,8.14285714 Z M96.8944477,1 L104.968234,51 L96.9665351,51 L95.5968749,41.9285714 L85.8650788,41.9285714 L84.4954186,51 L77.2145933,51 L85.2883797,1 L96.8944477,1 Z M90.6949331,9.85714286 L86.8743021,35.1428571 L94.5155642,35.1428571 L90.6949331,9.85714286 Z"/>
  </g>
</svg>
