<?xml version="1.0" encoding="UTF-8"?>
<svg width="526px" height="223px" viewBox="0 0 526 223" version="1.1" xmlns="http://www.w3.org/2000/svg" xmlns:xlink="http://www.w3.org/1999/xlink">
    <!-- Generator: Sketch 50.2 (55047) - http://www.bohemiancoding.com/sketch -->
    <title>Shape</title>
    <desc>Created with Sketch.</desc>
    <defs></defs>
    <g id="Page-1" stroke="none" stroke-width="1" fill="none" fill-rule="evenodd">
        <g id="star" fill="#FFFFFF" fill-rule="nonzero">
            <path d="M65.7850492,81.812 L88.366049,34.513 C89.651049,31.958 91.780049,29.396 93.907049,28.12 C96.469049,26.417 99.450049,25.565 102.854049,25.565 C105.842049,25.565 108.822049,26.417 111.383049,28.12 C113.938049,29.397 115.641049,31.958 117.344049,34.513 L139.502049,81.812 L191.066049,88.63 C194.471049,89.056 197.025049,90.333 199.580049,92.035 C201.715049,93.746 203.418049,96.3 204.695049,99.287 C205.547049,102.267 205.547049,105.672 204.695049,108.227 C204.269049,111.215 202.566049,113.776 200.431049,115.905 L162.087049,151.694 L171.886049,203.25 C172.737049,206.229 172.311049,209.225 171.034049,212.204 C170.182049,214.759 168.046049,217.314 165.493049,219.016 C162.938049,221.145 160.383049,221.996 157.395049,222.422 C154.417049,222.422 151.428049,221.996 148.448049,220.293 L102.852049,195.161 L56.8320492,220.293 C54.2770492,221.996 51.2960492,222.422 48.3160492,222.422 C45.3300492,221.996 42.3500492,221.145 39.7870492,219.016 C37.2340492,217.314 35.5310492,215.185 34.2540492,212.63 L34.2540492,212.204 C32.9760492,209.65 32.9760492,206.229 33.4020492,203.25 L43.2010492,151.694 L5.2750492,115.905 C2.7200492,114.202 1.4430492,111.215 0.5930492,108.653 L0.5930492,108.227 C-0.2579508,105.673 -0.2579508,102.267 1.0190492,99.287 C1.8690492,96.3 3.5720492,93.746 5.7010492,92.035 C8.2550492,90.333 10.8160492,89.056 14.2220492,88.63 L65.7850492,81.812 Z M229.832049,128.692 L236.224049,122.72 C236.650049,122.294 237.501049,122.294 237.927049,122.294 C238.784049,122.72 239.210049,123.145 239.210049,123.996 L239.636049,132.525 L247.300049,136.782 C247.726049,137.208 248.150049,137.634 248.150049,138.485 C248.150049,139.336 247.727049,139.762 246.875049,139.762 L238.785049,143.167 L237.502049,151.696 L236.225049,152.973 C235.373049,152.973 234.522049,152.973 234.096049,152.547 L228.981049,145.735 L220.032049,146.587 C219.609049,146.587 218.757049,146.587 218.757049,145.735 C218.331049,145.309 218.331049,144.457 218.757049,144.017 L223.021049,136.78 L219.609049,129.118 C219.183049,128.251 219.183049,127.84 219.609049,126.974 C220.459049,126.548 220.884049,126.548 221.736049,126.548 L229.832049,128.692 Z M193.617049,149.566 L194.044049,143.608 C194.044049,143.168 194.044049,142.742 194.470049,142.742 C194.895049,142.317 195.321049,142.742 195.747049,142.742 L200.431049,147.014 L205.972049,145.311 C206.398049,145.311 206.831049,145.311 207.257049,145.737 C207.257049,146.162 207.683049,146.588 207.257049,147.014 L205.120049,152.122 L208.108049,157.23 C208.534049,157.655 208.534049,158.081 208.108049,158.507 C208.108049,158.933 207.682049,158.933 207.256049,158.933 L201.287049,158.507 L197.449049,163.204 C197.024049,163.63 196.598049,163.63 196.172049,163.63 C195.746049,163.204 195.320049,163.204 195.320049,162.778 L194.043049,156.803 L188.502049,154.675 C188.076049,154.675 188.076049,154.249 188.076049,153.823 C187.650049,153.398 188.076049,152.972 188.502049,152.546 L193.617049,149.566 Z M461.217049,175.55 L461.216049,175.55 L461.216049,169.59 C461.216049,169.164 461.643049,168.738 462.068049,168.738 L463.345049,168.738 L467.601049,172.996 L473.568049,171.293 C473.994049,171.293 474.420049,171.293 474.420049,171.719 C474.846049,172.144 474.846049,172.57 474.846049,172.996 L472.293049,178.545 L475.697049,183.228 L475.697049,184.505 C475.272049,184.931 474.846049,185.357 474.420049,184.931 L468.453049,184.505 L465.047049,189.188 C464.622049,189.614 464.196049,189.614 463.770049,189.614 C463.346049,189.614 462.920049,189.188 462.920049,188.762 L461.643049,182.802 L456.100049,180.673 C455.674049,180.673 455.248049,180.247 455.248049,179.822 C455.248049,179.397 455.674049,178.971 456.100049,178.545 L461.217049,175.55 Z M482.941049,62.64 L487.207049,64.768 C487.633049,64.768 488.059049,65.194 488.059049,65.62 C488.059049,66.046 487.633049,66.472 487.207049,66.472 L482.941049,68.608 L482.517049,73.716 C482.517049,74.142 482.517049,74.142 482.091049,74.568 C481.665049,74.568 481.239049,74.568 481.239049,74.142 L477.407049,70.737 L472.718049,72.014 C472.292049,72.014 472.292049,72.014 471.866049,71.588 C471.440049,71.162 471.440049,70.736 471.866049,70.311 L473.993049,66.046 L471.440049,62.215 C471.006049,61.789 471.006049,61.363 471.440049,60.93 C471.440049,60.504 471.866049,60.504 472.292049,60.504 L476.974049,61.363 L480.388049,57.524 C480.388049,57.098 480.814049,57.098 481.240049,57.098 C481.666049,57.524 482.092049,57.524 482.092049,57.95 L482.941049,62.64 Z M511.494049,117.608 L509.365049,112.923 L509.365049,112.071 C509.790049,111.631 510.216049,111.631 510.642049,111.631 L515.326049,112.923 L518.732049,109.51 C519.163049,109.51 519.589049,109.084 520.015049,109.51 C520.015049,109.51 520.441049,109.936 520.441049,110.362 L520.867049,115.052 L525.133049,117.606 C525.559049,117.606 525.559049,118.032 525.559049,118.458 C525.559049,118.884 525.134049,118.884 524.700049,119.31 L520.442049,121.013 L519.590049,125.696 C519.590049,126.122 519.165049,126.548 518.733049,126.548 C518.307049,126.548 517.881049,126.548 517.881049,126.122 L514.475049,122.291 L509.791049,123.143 C509.365049,123.143 508.939049,123.143 508.939049,122.717 C508.507049,122.292 508.507049,121.866 508.939049,121.44 L511.494049,117.608 Z M434.793049,32.81 L432.662049,28.119 C432.236049,28.119 432.662049,27.693 432.662049,27.267 C433.088049,26.841 433.514049,26.841 433.514049,26.841 L438.196049,28.118 L442.036049,24.712 C442.036049,24.712 442.462049,24.286 442.888049,24.712 C443.314049,24.712 443.740049,25.138 443.740049,25.564 L443.740049,30.254 L448.004049,32.808 C448.430049,32.808 448.856049,33.234 448.856049,33.66 L448.004049,34.512 L443.315049,36.222 L442.463049,40.906 C442.463049,41.331 442.462049,41.757 442.037049,41.757 C441.612049,41.757 441.186049,41.757 440.760049,41.331 L437.774049,37.5 L433.090049,38.352 C432.664049,38.352 432.238049,38.352 432.238049,37.926 C431.812049,37.501 431.812049,37.075 432.238049,36.649 L434.793049,32.81 Z M404.537049,10.225 L407.528049,1.277 C407.528049,0.426 408.379049,0 408.805049,0 C409.657049,0 410.506049,0.426 410.932049,0.852 L415.623049,8.949 L424.996049,8.949 C425.847049,8.949 426.273049,9.374 426.699049,10.225 C427.125049,10.651 427.125049,11.502 426.273049,11.928 L420.304049,19.172 L423.284049,28.12 C423.284049,28.971 423.284049,29.83 422.858049,30.256 C422.006049,30.682 421.581049,30.682 420.729049,30.682 L412.208049,26.843 L404.538049,32.384 C403.686049,32.81 403.261049,32.81 402.409049,32.384 C401.557049,31.958 401.557049,31.534 401.557049,30.682 L401.983049,21.309 L394.739049,15.767 C393.887049,15.341 393.887049,14.49 393.887049,14.064 C393.887049,13.206 394.738049,12.78 395.164049,12.354 L404.537049,10.225 Z M424.994049,206.656 L421.580049,219.868 C421.154049,221.145 420.303049,221.571 419.451049,221.997 C418.176049,221.997 417.324049,221.997 416.472049,220.72 L408.376049,209.652 L394.737049,210.929 C393.460049,210.929 392.608049,210.503 392.182049,209.226 C391.325049,208.374 391.756049,207.523 392.182049,206.231 L400.278049,195.163 L395.163049,182.377 C394.737049,181.525 394.737049,180.249 395.589049,179.398 C396.441049,178.547 397.292049,178.546 398.577049,178.972 L411.354049,182.803 L422.004049,173.849 C422.856049,173.423 424.141049,172.997 424.992049,173.423 C425.844049,174.274 426.695049,175.14 426.695049,175.991 L426.695049,190.04 L438.621049,197.292 C439.480049,197.718 439.906049,198.569 439.906049,199.846 C439.480049,201.123 439.047049,201.975 437.771049,201.975 L424.994049,206.656 Z M502.113049,43.461 L499.558049,36.224 C499.132049,35.798 499.132049,35.373 499.558049,34.94 C499.984049,34.514 500.835049,34.088 501.261049,34.514 L508.505049,36.65 L514.472049,31.96 C514.898049,31.535 515.749049,31.535 516.175049,31.535 C516.601049,31.959 517.027049,32.385 517.027049,32.811 L517.027049,40.482 L523.420049,44.739 C524.272049,45.165 524.272049,45.597 524.272049,46.449 C524.272049,46.874 523.847049,47.3 522.995049,47.726 L515.751049,49.855 L514.048049,57.525 C514.048049,57.951 513.197049,58.377 512.771049,58.377 C512.345049,58.803 511.494049,58.377 511.068049,57.951 L506.804049,51.565 L499.134049,51.991 C498.283049,52.417 497.857049,51.991 497.431049,51.565 C497.431049,50.706 497.431049,50.281 497.857049,49.855 L502.113049,43.461 Z M487.633049,110.79 L492.315049,116.758 C492.741049,117.184 492.741049,118.034 492.315049,118.46 C492.315049,119.312 491.465049,119.312 491.040049,119.312 L483.368049,118.886 L478.686049,125.272 C478.260049,126.124 477.834049,126.124 476.975049,126.124 C476.549049,126.124 476.123049,125.698 476.123049,124.847 L473.994049,117.61 L466.324049,115.056 C465.898049,115.056 465.472049,114.63 465.472049,113.779 C465.046049,113.353 465.472049,112.487 465.898049,112.487 L472.718049,108.23 L472.292049,100.141 C472.292049,99.715 472.718049,99.289 473.142049,98.857 C473.994049,98.431 474.419049,98.431 474.845049,98.857 L480.814049,103.973 L488.484049,101.418 C488.910049,100.992 489.761049,101.418 490.187049,101.844 C490.613049,102.27 490.613049,102.696 490.187049,103.547 L487.633049,110.79 Z M285.226049,213.908 L191.064049,215.185 C188.502049,215.185 186.373049,212.631 185.947049,210.077 C185.947049,207.522 188.501049,204.954 191.064049,204.954 L285.226049,203.677 C288.214049,203.677 290.343049,206.231 290.343049,208.8 C290.343049,211.354 288.214049,213.908 285.226049,213.908 Z M372.154049,181.95 L372.154049,181.951 L357.664049,181.951 C355.111049,182.376 352.982049,179.823 352.982049,177.268 C352.982049,174.273 355.111049,172.145 357.664049,172.145 L371.728049,172.145 C374.708049,172.145 376.843049,174.273 376.843049,176.842 C376.843049,179.822 374.709049,181.95 372.154049,181.95 Z M337.640049,182.376 L207.255049,184.079 C204.693049,184.079 202.564049,181.95 202.564049,178.971 C202.564049,176.416 204.692049,173.848 207.255049,173.848 L337.640049,172.571 C340.195049,172.571 342.324049,174.699 342.324049,177.268 C342.749049,180.248 340.195049,182.376 337.640049,182.376 Z M368.748049,35.372 L139.500049,38.353 C136.948049,38.353 134.385049,36.224 134.385049,33.237 C134.385049,30.684 136.514049,28.122 139.500049,28.122 L368.748049,25.567 C371.302049,25.567 373.857049,27.695 373.857049,30.257 C373.857049,33.236 371.728049,35.372 368.748049,35.372 Z M415.195049,68.607 L397.726049,69.033 C394.738049,69.033 392.609049,66.897 392.609049,63.917 C392.609049,61.364 394.738049,58.802 397.726049,58.802 L415.195049,58.802 C417.749049,58.802 420.302049,60.929 420.302049,63.491 C420.302049,66.471 418.175049,68.607 415.195049,68.607 Z M379.398049,69.033 L185.947049,71.588 C183.387049,71.588 180.832049,69.459 180.832049,66.472 C180.832049,63.918 183.386049,61.364 185.947049,61.364 L379.398049,59.228 C381.958049,59.228 384.513049,61.363 384.513049,63.917 C384.513049,66.897 382.384049,69.033 379.398049,69.033 Z M445.017049,107.377 L280.970049,109.513 C278.408049,109.513 276.279049,107.378 275.853049,104.823 C275.853049,101.844 278.407049,99.715 280.970049,99.715 L445.017049,97.153 C447.577049,97.153 450.132049,99.289 450.132049,102.269 C450.132049,104.822 448.003049,107.377 445.017049,107.377 Z M258.810049,109.938 L241.341049,109.938 C238.361049,109.938 236.226049,107.803 236.226049,105.248 C236.226049,102.269 238.360049,100.14 240.915049,100.14 L258.810049,99.714 C261.790049,99.714 263.919049,102.268 263.919049,104.822 C263.919049,107.376 261.790049,109.938 258.810049,109.938 Z M515.752049,147.864 L499.135049,147.864 C496.155049,147.864 494.026049,145.735 494.026049,143.166 C494.026049,140.187 496.155049,138.058 499.135049,138.058 L515.326049,137.632 C518.306049,137.632 520.441049,139.761 520.441049,142.74 C520.441049,145.309 518.307049,147.864 515.752049,147.864 Z M478.260049,148.29 L267.758049,150.844 C265.204049,150.844 262.643049,148.716 262.643049,145.736 C262.643049,143.167 264.778049,140.613 267.758049,140.613 L478.260049,138.058 C480.815049,138.058 482.942049,140.612 482.942049,143.166 C482.942049,145.735 480.815049,148.29 478.260049,148.29 Z M97.318049,61.789 L95.615049,66.471 C95.189049,67.755 93.904049,68.607 92.203049,68.181 C90.926049,67.755 90.500049,66.045 90.926049,64.768 L92.629049,60.079 C93.052049,58.802 94.330049,57.95 95.615049,58.802 C96.892049,59.227 97.744049,60.504 97.318049,61.789 Z M92.629049,74.993 C90.500049,79.683 88.363049,85.225 85.807049,89.908 C83.255049,94.599 80.274049,98.43 76.860049,99.714 C65.3580492,104.823 35.9560492,106.1 35.9560492,106.1 C34.2530492,106.1 33.4020492,104.822 32.9760492,103.546 C32.9760492,102.268 34.2540492,100.991 35.5310492,100.991 C35.5310492,100.991 64.5100492,99.713 75.158049,95.023 C77.287049,94.172 79.424049,91.185 81.553049,87.353 C83.680049,83.096 86.235049,77.98 87.938049,72.864 C88.363049,71.588 89.649049,71.162 90.926049,71.588 C92.203049,72.014 93.053049,73.716 92.629049,74.993 Z M15.5080492,98.429 C14.2220492,98.429 12.9450492,98.855 12.0950492,99.713 C11.2440492,100.564 10.8180492,101.416 10.3940492,102.693 C9.9680492,103.544 9.9680492,104.821 10.3940492,106.098 C10.3940492,106.95 11.2430492,108.227 12.0950492,108.653 L52.1500492,146.586 C53.4270492,147.864 53.8530492,149.566 53.4270492,150.843 L43.2020492,205.379 C43.2020492,206.229 43.2020492,207.521 43.6280492,208.373 L43.6280492,208.799 C44.0540492,209.651 44.4800492,210.502 45.7570492,210.928 C46.6080492,211.779 47.8910492,212.204 48.7430492,212.204 C50.0200492,212.204 50.8720492,212.204 52.1490492,211.353 L100.299049,184.929 C102.002049,184.077 103.704049,184.077 104.981049,184.929 L153.139049,211.353 C154.416049,212.204 155.693049,212.204 156.543049,212.204 C157.820049,212.204 158.672049,211.78 159.957049,210.928 C160.808049,210.502 161.660049,209.65 161.660049,208.373 C162.086049,207.521 162.512049,206.229 162.086049,204.953 L151.854049,150.843 C151.428049,149.139 152.280049,147.437 153.565049,146.16 L193.618049,108.653 C194.469049,107.801 194.895049,106.95 195.321049,106.098 C195.321049,104.821 195.321049,103.545 194.895049,102.693 C194.469049,101.416 194.044049,100.565 193.192049,99.713 C192.341049,98.855 191.065049,98.429 190.206049,98.429 L135.663049,91.611 C133.534049,91.185 131.831049,89.908 131.405049,88.205 L107.969049,38.778 C107.543049,37.926 106.692049,37.075 105.840049,36.223 C104.981049,35.797 103.704049,35.371 102.852049,35.371 C101.577049,35.371 100.300049,35.797 99.448049,36.223 C98.596049,37.075 97.745049,37.926 97.319049,38.778 L73.8830492,88.631 C73.0230492,90.334 71.7460492,91.185 70.0430492,91.611 L15.5080492,98.429 Z" id="Shape"></path>
        </g>
    </g>
</svg>