<?xml version="1.0" encoding="UTF-8"?>
<svg width="526px" height="223px" viewBox="0 0 526 223" version="1.1" xmlns="http://www.w3.org/2000/svg" xmlns:xlink="http://www.w3.org/1999/xlink">
    <!-- Generator: Sketch 50.2 (55047) - http://www.bohemiancoding.com/sketch -->
    <title>Shape</title>
    <desc>Created with Sketch.</desc>
    <defs></defs>
    <g id="Page-1" stroke="none" stroke-width="1" fill="none" fill-rule="evenodd">
        <g id="Artboard-3" transform="translate(-26.000000, -276.000000)" fill="#FF3824" fill-rule="nonzero">
            <path d="M91.7850492,357.812 L114.366049,310.513 C115.651049,307.958 117.780049,305.396 119.907049,304.12 C122.469049,302.417 125.450049,301.565 128.854049,301.565 C131.842049,301.565 134.822049,302.417 137.383049,304.12 C139.938049,305.397 141.641049,307.958 143.344049,310.513 L165.502049,357.812 L217.066049,364.63 C220.471049,365.056 223.025049,366.333 225.580049,368.035 C227.715049,369.746 229.418049,372.3 230.695049,375.287 C231.547049,378.267 231.547049,381.672 230.695049,384.227 C230.269049,387.215 228.566049,389.776 226.431049,391.905 L188.087049,427.694 L197.886049,479.25 C198.737049,482.229 198.311049,485.225 197.034049,488.204 C196.182049,490.759 194.046049,493.314 191.493049,495.016 C188.938049,497.145 186.383049,497.996 183.395049,498.422 C180.417049,498.422 177.428049,497.996 174.448049,496.293 L128.852049,471.161 L82.8320492,496.293 C80.2770492,497.996 77.2960492,498.422 74.3160492,498.422 C71.3300492,497.996 68.3500492,497.145 65.7870492,495.016 C63.2340492,493.314 61.5310492,491.185 60.2540492,488.63 L60.2540492,488.204 C58.9760492,485.65 58.9760492,482.229 59.4020492,479.25 L69.2010492,427.694 L31.2750492,391.905 C28.7200492,390.202 27.4430492,387.215 26.5930492,384.653 L26.5930492,384.227 C25.7420492,381.673 25.7420492,378.267 27.0190492,375.287 C27.8690492,372.3 29.5720492,369.746 31.7010492,368.035 C34.2550492,366.333 36.8160492,365.056 40.2220492,364.63 L91.7850492,357.812 Z M255.832049,404.692 L262.224049,398.72 C262.650049,398.294 263.501049,398.294 263.927049,398.294 C264.784049,398.72 265.210049,399.145 265.210049,399.996 L265.636049,408.525 L273.300049,412.782 C273.726049,413.208 274.150049,413.634 274.150049,414.485 C274.150049,415.336 273.727049,415.762 272.875049,415.762 L264.785049,419.167 L263.502049,427.696 L262.225049,428.973 C261.373049,428.973 260.522049,428.973 260.096049,428.547 L254.981049,421.735 L246.032049,422.587 C245.609049,422.587 244.757049,422.587 244.757049,421.735 C244.331049,421.309 244.331049,420.457 244.757049,420.017 L249.021049,412.78 L245.609049,405.118 C245.183049,404.251 245.183049,403.84 245.609049,402.974 C246.459049,402.548 246.884049,402.548 247.736049,402.548 L255.832049,404.692 Z M219.617049,425.566 L220.044049,419.608 C220.044049,419.168 220.044049,418.742 220.470049,418.742 C220.895049,418.317 221.321049,418.742 221.747049,418.742 L226.431049,423.014 L231.972049,421.311 C232.398049,421.311 232.831049,421.311 233.257049,421.737 C233.257049,422.162 233.683049,422.588 233.257049,423.014 L231.120049,428.122 L234.108049,433.23 C234.534049,433.655 234.534049,434.081 234.108049,434.507 C234.108049,434.933 233.682049,434.933 233.256049,434.933 L227.287049,434.507 L223.449049,439.204 C223.024049,439.63 222.598049,439.63 222.172049,439.63 C221.746049,439.204 221.320049,439.204 221.320049,438.778 L220.043049,432.803 L214.502049,430.675 C214.076049,430.675 214.076049,430.249 214.076049,429.823 C213.650049,429.398 214.076049,428.972 214.502049,428.546 L219.617049,425.566 Z M487.217049,451.55 L487.216049,451.55 L487.216049,445.59 C487.216049,445.164 487.643049,444.738 488.068049,444.738 L489.345049,444.738 L493.601049,448.996 L499.568049,447.293 C499.994049,447.293 500.420049,447.293 500.420049,447.719 C500.846049,448.144 500.846049,448.57 500.846049,448.996 L498.293049,454.545 L501.697049,459.228 L501.697049,460.505 C501.272049,460.931 500.846049,461.357 500.420049,460.931 L494.453049,460.505 L491.047049,465.188 C490.622049,465.614 490.196049,465.614 489.770049,465.614 C489.346049,465.614 488.920049,465.188 488.920049,464.762 L487.643049,458.802 L482.100049,456.673 C481.674049,456.673 481.248049,456.247 481.248049,455.822 C481.248049,455.397 481.674049,454.971 482.100049,454.545 L487.217049,451.55 Z M508.941049,338.64 L513.207049,340.768 C513.633049,340.768 514.059049,341.194 514.059049,341.62 C514.059049,342.046 513.633049,342.472 513.207049,342.472 L508.941049,344.608 L508.517049,349.716 C508.517049,350.142 508.517049,350.142 508.091049,350.568 C507.665049,350.568 507.239049,350.568 507.239049,350.142 L503.407049,346.737 L498.718049,348.014 C498.292049,348.014 498.292049,348.014 497.866049,347.588 C497.440049,347.162 497.440049,346.736 497.866049,346.311 L499.993049,342.046 L497.440049,338.215 C497.006049,337.789 497.006049,337.363 497.440049,336.93 C497.440049,336.504 497.866049,336.504 498.292049,336.504 L502.974049,337.363 L506.388049,333.524 C506.388049,333.098 506.814049,333.098 507.240049,333.098 C507.666049,333.524 508.092049,333.524 508.092049,333.95 L508.941049,338.64 Z M537.494049,393.608 L535.365049,388.923 L535.365049,388.071 C535.790049,387.631 536.216049,387.631 536.642049,387.631 L541.326049,388.923 L544.732049,385.51 C545.163049,385.51 545.589049,385.084 546.015049,385.51 C546.015049,385.51 546.441049,385.936 546.441049,386.362 L546.867049,391.052 L551.133049,393.606 C551.559049,393.606 551.559049,394.032 551.559049,394.458 C551.559049,394.884 551.134049,394.884 550.700049,395.31 L546.442049,397.013 L545.590049,401.696 C545.590049,402.122 545.165049,402.548 544.733049,402.548 C544.307049,402.548 543.881049,402.548 543.881049,402.122 L540.475049,398.291 L535.791049,399.143 C535.365049,399.143 534.939049,399.143 534.939049,398.717 C534.507049,398.292 534.507049,397.866 534.939049,397.44 L537.494049,393.608 Z M460.793049,308.81 L458.662049,304.119 C458.236049,304.119 458.662049,303.693 458.662049,303.267 C459.088049,302.841 459.514049,302.841 459.514049,302.841 L464.196049,304.118 L468.036049,300.712 C468.036049,300.712 468.462049,300.286 468.888049,300.712 C469.314049,300.712 469.740049,301.138 469.740049,301.564 L469.740049,306.254 L474.004049,308.808 C474.430049,308.808 474.856049,309.234 474.856049,309.66 L474.004049,310.512 L469.315049,312.222 L468.463049,316.906 C468.463049,317.331 468.462049,317.757 468.037049,317.757 C467.612049,317.757 467.186049,317.757 466.760049,317.331 L463.774049,313.5 L459.090049,314.352 C458.664049,314.352 458.238049,314.352 458.238049,313.926 C457.812049,313.501 457.812049,313.075 458.238049,312.649 L460.793049,308.81 Z M430.537049,286.225 L433.528049,277.277 C433.528049,276.426 434.379049,276 434.805049,276 C435.657049,276 436.506049,276.426 436.932049,276.852 L441.623049,284.949 L450.996049,284.949 C451.847049,284.949 452.273049,285.374 452.699049,286.225 C453.125049,286.651 453.125049,287.502 452.273049,287.928 L446.304049,295.172 L449.284049,304.12 C449.284049,304.971 449.284049,305.83 448.858049,306.256 C448.006049,306.682 447.581049,306.682 446.729049,306.682 L438.208049,302.843 L430.538049,308.384 C429.686049,308.81 429.261049,308.81 428.409049,308.384 C427.557049,307.958 427.557049,307.534 427.557049,306.682 L427.983049,297.309 L420.739049,291.767 C419.887049,291.341 419.887049,290.49 419.887049,290.064 C419.887049,289.206 420.738049,288.78 421.164049,288.354 L430.537049,286.225 Z M450.994049,482.656 L447.580049,495.868 C447.154049,497.145 446.303049,497.571 445.451049,497.997 C444.176049,497.997 443.324049,497.997 442.472049,496.72 L434.376049,485.652 L420.737049,486.929 C419.460049,486.929 418.608049,486.503 418.182049,485.226 C417.325049,484.374 417.756049,483.523 418.182049,482.231 L426.278049,471.163 L421.163049,458.377 C420.737049,457.525 420.737049,456.249 421.589049,455.398 C422.441049,454.547 423.292049,454.546 424.577049,454.972 L437.354049,458.803 L448.004049,449.849 C448.856049,449.423 450.141049,448.997 450.992049,449.423 C451.844049,450.274 452.695049,451.14 452.695049,451.991 L452.695049,466.04 L464.621049,473.292 C465.480049,473.718 465.906049,474.569 465.906049,475.846 C465.480049,477.123 465.047049,477.975 463.771049,477.975 L450.994049,482.656 Z M528.113049,319.461 L525.558049,312.224 C525.132049,311.798 525.132049,311.373 525.558049,310.94 C525.984049,310.514 526.835049,310.088 527.261049,310.514 L534.505049,312.65 L540.472049,307.96 C540.898049,307.535 541.749049,307.535 542.175049,307.535 C542.601049,307.959 543.027049,308.385 543.027049,308.811 L543.027049,316.482 L549.420049,320.739 C550.272049,321.165 550.272049,321.597 550.272049,322.449 C550.272049,322.874 549.847049,323.3 548.995049,323.726 L541.751049,325.855 L540.048049,333.525 C540.048049,333.951 539.197049,334.377 538.771049,334.377 C538.345049,334.803 537.494049,334.377 537.068049,333.951 L532.804049,327.565 L525.134049,327.991 C524.283049,328.417 523.857049,327.991 523.431049,327.565 C523.431049,326.706 523.431049,326.281 523.857049,325.855 L528.113049,319.461 Z M513.633049,386.79 L518.315049,392.758 C518.741049,393.184 518.741049,394.034 518.315049,394.46 C518.315049,395.312 517.465049,395.312 517.040049,395.312 L509.368049,394.886 L504.686049,401.272 C504.260049,402.124 503.834049,402.124 502.975049,402.124 C502.549049,402.124 502.123049,401.698 502.123049,400.847 L499.994049,393.61 L492.324049,391.056 C491.898049,391.056 491.472049,390.63 491.472049,389.779 C491.046049,389.353 491.472049,388.487 491.898049,388.487 L498.718049,384.23 L498.292049,376.141 C498.292049,375.715 498.718049,375.289 499.142049,374.857 C499.994049,374.431 500.419049,374.431 500.845049,374.857 L506.814049,379.973 L514.484049,377.418 C514.910049,376.992 515.761049,377.418 516.187049,377.844 C516.613049,378.27 516.613049,378.696 516.187049,379.547 L513.633049,386.79 Z M311.226049,489.908 L217.064049,491.185 C214.502049,491.185 212.373049,488.631 211.947049,486.077 C211.947049,483.522 214.501049,480.954 217.064049,480.954 L311.226049,479.677 C314.214049,479.677 316.343049,482.231 316.343049,484.8 C316.343049,487.354 314.214049,489.908 311.226049,489.908 Z M398.154049,457.95 L398.154049,457.951 L383.664049,457.951 C381.111049,458.376 378.982049,455.823 378.982049,453.268 C378.982049,450.273 381.111049,448.145 383.664049,448.145 L397.728049,448.145 C400.708049,448.145 402.843049,450.273 402.843049,452.842 C402.843049,455.822 400.709049,457.95 398.154049,457.95 Z M363.640049,458.376 L233.255049,460.079 C230.693049,460.079 228.564049,457.95 228.564049,454.971 C228.564049,452.416 230.692049,449.848 233.255049,449.848 L363.640049,448.571 C366.195049,448.571 368.324049,450.699 368.324049,453.268 C368.749049,456.248 366.195049,458.376 363.640049,458.376 Z M394.748049,311.372 L165.500049,314.353 C162.948049,314.353 160.385049,312.224 160.385049,309.237 C160.385049,306.684 162.514049,304.122 165.500049,304.122 L394.748049,301.567 C397.302049,301.567 399.857049,303.695 399.857049,306.257 C399.857049,309.236 397.728049,311.372 394.748049,311.372 Z M441.195049,344.607 L423.726049,345.033 C420.738049,345.033 418.609049,342.897 418.609049,339.917 C418.609049,337.364 420.738049,334.802 423.726049,334.802 L441.195049,334.802 C443.749049,334.802 446.302049,336.929 446.302049,339.491 C446.302049,342.471 444.175049,344.607 441.195049,344.607 Z M405.398049,345.033 L211.947049,347.588 C209.387049,347.588 206.832049,345.459 206.832049,342.472 C206.832049,339.918 209.386049,337.364 211.947049,337.364 L405.398049,335.228 C407.958049,335.228 410.513049,337.363 410.513049,339.917 C410.513049,342.897 408.384049,345.033 405.398049,345.033 Z M471.017049,383.377 L306.970049,385.513 C304.408049,385.513 302.279049,383.378 301.853049,380.823 C301.853049,377.844 304.407049,375.715 306.970049,375.715 L471.017049,373.153 C473.577049,373.153 476.132049,375.289 476.132049,378.269 C476.132049,380.822 474.003049,383.377 471.017049,383.377 Z M284.810049,385.938 L267.341049,385.938 C264.361049,385.938 262.226049,383.803 262.226049,381.248 C262.226049,378.269 264.360049,376.14 266.915049,376.14 L284.810049,375.714 C287.790049,375.714 289.919049,378.268 289.919049,380.822 C289.919049,383.376 287.790049,385.938 284.810049,385.938 Z M541.752049,423.864 L525.135049,423.864 C522.155049,423.864 520.026049,421.735 520.026049,419.166 C520.026049,416.187 522.155049,414.058 525.135049,414.058 L541.326049,413.632 C544.306049,413.632 546.441049,415.761 546.441049,418.74 C546.441049,421.309 544.307049,423.864 541.752049,423.864 Z M504.260049,424.29 L293.758049,426.844 C291.204049,426.844 288.643049,424.716 288.643049,421.736 C288.643049,419.167 290.778049,416.613 293.758049,416.613 L504.260049,414.058 C506.815049,414.058 508.942049,416.612 508.942049,419.166 C508.942049,421.735 506.815049,424.29 504.260049,424.29 Z M123.318049,337.789 L121.615049,342.471 C121.189049,343.755 119.904049,344.607 118.203049,344.181 C116.926049,343.755 116.500049,342.045 116.926049,340.768 L118.629049,336.079 C119.052049,334.802 120.330049,333.95 121.615049,334.802 C122.892049,335.227 123.744049,336.504 123.318049,337.789 Z M118.629049,350.993 C116.500049,355.683 114.363049,361.225 111.807049,365.908 C109.255049,370.599 106.274049,374.43 102.860049,375.714 C91.3580492,380.823 61.9560492,382.1 61.9560492,382.1 C60.2530492,382.1 59.4020492,380.822 58.9760492,379.546 C58.9760492,378.268 60.2540492,376.991 61.5310492,376.991 C61.5310492,376.991 90.5100492,375.713 101.158049,371.023 C103.287049,370.172 105.424049,367.185 107.553049,363.353 C109.680049,359.096 112.235049,353.98 113.938049,348.864 C114.363049,347.588 115.649049,347.162 116.926049,347.588 C118.203049,348.014 119.053049,349.716 118.629049,350.993 Z M41.5080492,374.429 C40.2220492,374.429 38.9450492,374.855 38.0950492,375.713 C37.2440492,376.564 36.8180492,377.416 36.3940492,378.693 C35.9680492,379.544 35.9680492,380.821 36.3940492,382.098 C36.3940492,382.95 37.2430492,384.227 38.0950492,384.653 L78.1500492,422.586 C79.4270492,423.864 79.8530492,425.566 79.4270492,426.843 L69.2020492,481.379 C69.2020492,482.229 69.2020492,483.521 69.6280492,484.373 L69.6280492,484.799 C70.0540492,485.651 70.4800492,486.502 71.7570492,486.928 C72.6080492,487.779 73.8910492,488.204 74.7430492,488.204 C76.0200492,488.204 76.8720492,488.204 78.1490492,487.353 L126.299049,460.929 C128.002049,460.077 129.704049,460.077 130.981049,460.929 L179.139049,487.353 C180.416049,488.204 181.693049,488.204 182.543049,488.204 C183.820049,488.204 184.672049,487.78 185.957049,486.928 C186.808049,486.502 187.660049,485.65 187.660049,484.373 C188.086049,483.521 188.512049,482.229 188.086049,480.953 L177.854049,426.843 C177.428049,425.139 178.280049,423.437 179.565049,422.16 L219.618049,384.653 C220.469049,383.801 220.895049,382.95 221.321049,382.098 C221.321049,380.821 221.321049,379.545 220.895049,378.693 C220.469049,377.416 220.044049,376.565 219.192049,375.713 C218.341049,374.855 217.065049,374.429 216.206049,374.429 L161.663049,367.611 C159.534049,367.185 157.831049,365.908 157.405049,364.205 L133.969049,314.778 C133.543049,313.926 132.692049,313.075 131.840049,312.223 C130.981049,311.797 129.704049,311.371 128.852049,311.371 C127.577049,311.371 126.300049,311.797 125.448049,312.223 C124.596049,313.075 123.745049,313.926 123.319049,314.778 L99.8830492,364.631 C99.0230492,366.334 97.7460492,367.185 96.0430492,367.611 L41.5080492,374.429 Z" id="Shape"></path>
        </g>
    </g>
</svg>